<svg width="86" height="46" viewBox="0 0 86 46" fill="none" xmlns="http://www.w3.org/2000/svg">
<path d="M0.568359 2.00718V3.40796H43.2221H85.8758V2.00718V0.606402H43.2221H0.568359V2.00718Z" fill="#101010"/>
<path d="M49.0503 11.5039C47.7476 12.2043 47.7896 14.1374 49.1064 14.6977C50.4931 15.272 51.978 14.4315 51.978 13.0728C51.978 11.672 50.3531 10.8035 49.0503 11.5039Z" fill="#101010"/>
<path d="M8.55273 21.1271V30.1621H10.0936H11.6344V21.1271V12.0921H10.0936H8.55273V21.1271Z" fill="#101010"/>
<path d="M72.4006 13.6336L72.3585 15.1884L71.0418 14.404C70.3274 13.9838 69.6831 13.6336 69.627 13.6336C69.557 13.6336 69.3049 13.9838 69.0527 14.418C68.6885 15.0624 68.6465 15.2305 68.8006 15.3285C68.9126 15.3986 69.487 15.7067 70.0753 16.0149C70.6636 16.3231 71.1819 16.6312 71.2239 16.6873C71.2519 16.7433 70.6916 17.1215 69.9632 17.5277C69.2348 17.934 68.6465 18.2982 68.6465 18.3402C68.6465 18.3822 68.8706 18.7464 69.1368 19.1667L69.613 19.9231L70.9157 19.1667C71.6301 18.7464 72.2605 18.3962 72.3305 18.3962C72.3866 18.3962 72.4286 19.0966 72.4286 19.9371V21.4919L73.3111 21.4499L74.1796 21.4079L74.2216 19.8951C74.2356 19.0686 74.3056 18.3962 74.3617 18.3962C74.4177 18.4102 75.034 18.7464 75.7204 19.1667C77.1212 19.9931 77.0512 20.0071 77.6535 18.9285L78.0317 18.2702L76.701 17.5558C75.9726 17.1635 75.3702 16.7993 75.3702 16.7433C75.3702 16.6873 75.9445 16.3371 76.6309 15.9729C77.3313 15.5947 77.8916 15.2305 77.8916 15.1464C77.8916 14.8943 77.1352 13.6336 76.9811 13.6336C76.9111 13.6476 76.2807 13.9838 75.5803 14.404L74.3196 15.1464L74.2776 13.6196L74.2356 12.0927H73.3391H72.4426L72.4006 13.6336Z" fill="#101010"/>
<path d="M19.8992 17.2197C18.4984 17.5139 17.0976 18.2703 16.2852 19.1668C15.0945 20.4695 14.5902 21.8283 14.5762 23.7333C14.5622 27.5715 17.4478 30.303 21.5101 30.303C24.7599 30.303 27.2813 28.566 28.1638 25.7224C28.4719 24.7139 28.528 23.075 28.2898 22.0524C27.8976 20.3294 26.4968 18.5785 24.914 17.8361C23.233 17.0516 21.6081 16.8415 19.8992 17.2197ZM23.3311 20.0913C24.984 20.9178 25.7544 23.0469 25.1381 25.1341C24.8439 26.1287 23.7513 27.2493 22.8408 27.5014C20.7957 28.0757 18.9326 27.3473 18.0502 25.6244C17.6299 24.8119 17.5459 23.159 17.8681 22.1645C18.2042 21.1839 19.1988 20.1754 20.1233 19.8812C21.0898 19.573 22.4766 19.6711 23.3311 20.0913Z" fill="#101010"/>
<path d="M36.0079 17.0935C33.9208 17.4156 32.1138 18.5363 31.2033 20.0911C30.629 21.0717 30.3628 22.3324 30.4329 23.7191C30.5449 25.7363 31.3854 27.3051 32.9122 28.3697C34.0609 29.1682 35.0274 29.4904 36.5823 29.5744C38.2352 29.6584 39.5519 29.3083 40.5465 28.5518C40.9107 28.2857 41.2188 28.0616 41.2609 28.0616C41.429 28.0616 41.3169 29.6304 41.0928 30.2888C40.6025 31.8297 39.3418 32.5441 37.1426 32.5441C35.7138 32.5441 34.7613 32.3059 33.3745 31.6195C32.8002 31.3394 32.3239 31.1433 32.2959 31.1713C32.1418 31.3254 31.1052 33.2024 31.1052 33.3285C31.1052 33.5806 32.9543 34.4911 34.1449 34.8133C35.7698 35.2616 39.0616 35.2476 40.3504 34.7993C42.5216 34.0569 43.7402 32.6841 44.2165 30.4569C44.3566 29.7425 44.4126 28.1176 44.4126 23.2569V16.9814L42.9838 17.0234L41.541 17.0655L41.499 17.9479L41.457 18.8304L40.9667 18.4102C39.79 17.3596 37.7309 16.8273 36.0079 17.0935ZM38.7675 19.867C40.4064 20.3573 41.3869 21.674 41.3729 23.369C41.3729 24.3495 41.1208 25.0079 40.4904 25.7363C38.6274 27.8514 34.5932 27.1931 33.7107 24.6297C32.6461 21.5059 35.4336 18.8725 38.7675 19.867Z" fill="#101010"/>
<path d="M48.5727 17.0788C48.5166 17.1349 48.4746 20.1045 48.4746 23.6765V30.1621H50.0155H51.5563L51.5283 23.6065L51.4863 17.0648L50.0715 17.0228C49.3011 17.0088 48.6287 17.0228 48.5727 17.0788Z" fill="#101010"/>
<path d="M60.1441 17.1348C57.3425 17.6391 55.2834 19.5442 54.695 22.1636C54.0227 25.1613 55.3954 28.215 57.9869 29.5177C60.2982 30.6944 63.7861 30.5123 65.6071 29.1255C66.1674 28.7053 67.1059 27.5986 67.1059 27.3745C67.1059 27.3045 66.6017 26.9683 65.9713 26.6041L64.8367 25.9457L64.3604 26.492C63.674 27.3045 62.7775 27.6827 61.5589 27.6827C59.1355 27.6687 57.6507 26.1418 57.6647 23.6484C57.6647 22.3457 57.9589 21.5613 58.7153 20.7909C59.4717 20.0204 60.2701 19.7263 61.5729 19.7263C62.8476 19.7263 63.4779 19.9924 64.2904 20.8329C64.5565 21.113 64.8367 21.3372 64.8927 21.3372C65.1168 21.3372 67.0919 20.1465 67.0919 20.0064C67.0919 19.7263 66.2515 18.7597 65.5511 18.2414C64.3184 17.3029 61.9231 16.8267 60.1441 17.1348Z" fill="#101010"/>
<path d="M0.596711 44.4088L0.638734 45.7815L43.2644 45.8235L85.8761 45.8516V44.4508V43.05H43.2224H0.554688L0.596711 44.4088Z" fill="#101010"/>
</svg>
