<svg width="92" height="57" viewBox="0 0 92 57" fill="none" xmlns="http://www.w3.org/2000/svg">
<path d="M-1.34766 2.25223V3.97266H45.0864H91.5204V2.25223V0.531794H45.0864H-1.34766V2.25223Z" fill="white"/>
<path d="M51.4299 13.9149C50.0117 14.7751 50.0574 17.1493 51.4909 17.8375C53.0005 18.5429 54.617 17.5106 54.617 15.8418C54.617 14.1214 52.848 13.0547 51.4299 13.9149Z" fill="white"/>
<path d="M7.34375 25.7353V36.832H9.02117H10.6986V25.7353V14.6385H9.02117H7.34375V25.7353Z" fill="white"/>
<path d="M76.8505 16.532L76.8047 18.4417L75.3713 17.4782C74.5936 16.9621 73.8921 16.532 73.8311 16.532C73.7549 16.532 73.4804 16.9621 73.2059 17.4954C72.8094 18.2868 72.7637 18.4933 72.9314 18.6137C73.0534 18.6997 73.6786 19.0782 74.3191 19.4567C74.9596 19.8352 75.5238 20.2137 75.5695 20.2825C75.6 20.3513 74.9901 20.8158 74.1971 21.3148C73.4041 21.8137 72.7637 22.261 72.7637 22.3126C72.7637 22.3642 73.0077 22.8115 73.2974 23.3277L73.8159 24.2567L75.2341 23.3277C76.0118 22.8115 76.698 22.3814 76.7742 22.3814C76.8352 22.3814 76.881 23.2417 76.881 24.2739V26.1836L77.8417 26.132L78.7871 26.0804L78.8329 24.2223C78.8481 23.2072 78.9244 22.3814 78.9854 22.3814C79.0464 22.3986 79.7173 22.8115 80.4646 23.3277C81.9895 24.3427 81.9132 24.3599 82.569 23.0352L82.9807 22.2266L81.532 21.3492C80.739 20.8675 80.0833 20.4201 80.0833 20.3513C80.0833 20.2825 80.7085 19.8524 81.4558 19.4051C82.2182 18.9406 82.8282 18.4933 82.8282 18.39C82.8282 18.0804 82.0047 16.532 81.837 16.532C81.7607 16.5492 81.0745 16.9621 80.3121 17.4782L78.9396 18.39L78.8939 16.5148L78.8481 14.6395H77.8722H76.8962L76.8505 16.532Z" fill="white"/>
<path d="M19.6952 20.9351C18.1702 21.2964 16.6453 22.2254 15.7609 23.3265C14.4647 24.9265 13.9157 26.5953 13.9004 28.9351C13.8852 33.6491 17.0265 37.0039 21.4488 37.0039C24.9867 37.0039 27.7315 34.8706 28.6922 31.3781C29.0277 30.1394 29.0887 28.1265 28.8295 26.8706C28.4025 24.7544 26.8776 22.6039 25.1544 21.6921C23.3245 20.7286 21.5556 20.4706 19.6952 20.9351ZM23.4312 24.462C25.2307 25.477 26.0694 28.0921 25.3984 30.6555C25.0782 31.877 23.8887 33.2534 22.8975 33.563C20.6711 34.2684 18.643 33.3738 17.6823 31.2577C17.2248 30.2598 17.1333 28.2297 17.484 27.0082C17.85 25.8039 18.9327 24.5652 19.9392 24.2039C20.9914 23.8254 22.501 23.9458 23.4312 24.462Z" fill="white"/>
<path d="M37.2335 20.7814C34.9614 21.1771 32.9942 22.5534 32.003 24.4631C31.3778 25.6674 31.088 27.2158 31.1643 28.919C31.2863 31.3964 32.2012 33.3233 33.8634 34.6308C35.1139 35.6115 36.1661 36.0072 37.8587 36.1104C39.6581 36.2136 41.0916 35.7835 42.1743 34.8545C42.5707 34.5276 42.9062 34.2523 42.952 34.2523C43.135 34.2523 43.013 36.1792 42.769 36.9878C42.2353 38.8803 40.8628 39.7577 38.4687 39.7577C36.9133 39.7577 35.8763 39.4652 34.3666 38.6222C33.7414 38.2781 33.2229 38.0373 33.1924 38.0717C33.0247 38.2609 31.8963 40.5663 31.8963 40.7212C31.8963 41.0308 33.9092 42.1491 35.2054 42.5448C36.9743 43.0954 40.5578 43.0782 41.9608 42.5276C44.3244 41.6158 45.6511 39.9298 46.1696 37.1943C46.3221 36.3169 46.3831 34.3212 46.3831 28.3513V20.6437L44.8276 20.6953L43.257 20.747L43.2112 21.8308L43.1655 22.9147L42.6317 22.3986C41.3508 21.1082 39.1092 20.4545 37.2335 20.7814ZM40.2376 24.1878C42.0218 24.79 43.0892 26.4072 43.074 28.4889C43.074 29.6932 42.7995 30.5018 42.1133 31.3964C40.0851 33.9943 35.6933 33.1857 34.7326 30.0373C33.5737 26.2007 36.6083 22.9663 40.2376 24.1878Z" fill="white"/>
<path d="M50.9114 20.7632C50.8504 20.832 50.8047 24.4793 50.8047 28.8664V36.832H52.4821H54.1595L54.129 28.7804L54.0833 20.746L52.5431 20.6944C51.7044 20.6772 50.9724 20.6944 50.9114 20.7632Z" fill="white"/>
<path d="M63.5073 20.8329C60.4574 21.4523 58.2158 23.7921 57.5753 27.0093C56.8434 30.691 58.3378 34.4415 61.1589 36.0415C63.675 37.4867 67.4721 37.263 69.4545 35.5598C70.0645 35.0437 71.0862 33.6845 71.0862 33.4093C71.0862 33.3232 70.5372 32.9103 69.851 32.463L68.6158 31.6544L68.0973 32.3254C67.3501 33.3232 66.3742 33.7878 65.0475 33.7878C62.4093 33.7706 60.7929 31.8953 60.8082 28.8329C60.8082 27.2329 61.1284 26.2695 61.9519 25.3232C62.7753 24.377 63.6445 24.0157 65.0627 24.0157C66.4504 24.0157 67.1366 24.3426 68.0211 25.3749C68.3108 25.7189 68.6158 25.9942 68.6768 25.9942C68.9208 25.9942 71.0709 24.5318 71.0709 24.3598C71.0709 24.0157 70.156 22.8286 69.3935 22.1921C68.0516 21.0394 65.4439 20.4544 63.5073 20.8329Z" fill="white"/>
<path d="M-1.31753 54.3295L-1.27179 56.0155L45.1318 56.0672L91.52 56.1016V54.3811V52.6607H45.086H-1.36328L-1.31753 54.3295Z" fill="white"/>
</svg>
