<svg width="696" height="160" viewBox="0 0 696 160" fill="none" xmlns="http://www.w3.org/2000/svg">
<g clip-path="url(#clip0_1053_595)">
<path d="M170.125 20.0859H181.673V127.701H170.125V20.0859Z" fill="white"/>
<path d="M193.465 89.293C193.465 65.4436 209.615 49.293 230.369 49.293C251.122 49.293 267.272 65.4436 267.272 89.293C267.272 113.142 251.122 129.293 230.369 129.293C209.615 129.293 193.465 113.142 193.465 89.293ZM255.724 89.293C255.724 71.6361 244.176 60.0879 230.369 60.0879C216.561 60.0879 205.013 71.6361 205.013 89.293C205.013 106.95 216.561 118.498 230.369 118.498C244.176 118.498 255.724 106.95 255.724 89.293Z" fill="white"/>
<path d="M277.413 133.892H288.961C289.714 141.591 297.413 149.29 312.057 149.29C325.865 149.29 335.154 140.838 335.154 127.783V113.976H334.4C328.208 120.921 319.756 124.771 309.798 124.771C289.798 124.771 274.4 109.373 274.4 87.1139C274.4 64.8545 289.798 49.457 309.798 49.457C319.756 49.457 329.045 54.0595 334.4 61.0051H335.154L336.66 51.047H346.618V127.951C346.618 147.198 333.564 160.252 312.057 160.252C290.551 160.252 278.25 147.198 277.497 134.143L277.413 133.892ZM335.07 86.9466C335.07 70.7959 324.275 60.001 310.467 60.001C296.66 60.001 285.865 70.7959 285.865 86.9466C285.865 103.097 296.66 113.892 310.467 113.892C324.275 113.892 335.07 103.097 335.07 86.9466Z" fill="white"/>
<path d="M361.842 21.5898H374.896V34.6442H361.842V21.5898ZM362.595 50.8785H374.143V127.782H362.595V50.8785Z" fill="white"/>
<path d="M385.607 89.293C385.607 65.4436 401.758 49.293 422.511 49.293C439.415 49.293 452.469 59.2511 456.319 75.4018H444.771C441.674 65.4436 433.222 60.0043 422.511 60.0043C408.704 60.0043 397.156 71.5524 397.156 89.2093C397.156 106.866 408.704 118.414 422.511 118.414C433.306 118.414 441.758 113.059 444.771 102.264H456.319C452.469 119.167 439.415 129.209 422.511 129.209C401.758 129.209 385.607 113.059 385.607 89.2093V89.293Z" fill="white"/>
<path d="M461.92 105.444H473.468C473.468 112.389 480.413 118.498 492.715 118.498C505.016 118.498 511.125 113.142 511.125 106.95C511.125 100.757 507.275 96.9917 498.07 95.4018L485.016 93.0587C471.208 90.7156 463.51 83.8536 463.51 71.5524C463.51 59.2511 472.715 49.293 491.961 49.293C511.208 49.293 521.92 60.8411 521.92 73.1423H510.372C510.372 66.1967 503.426 60.0879 491.878 60.0879C480.33 60.0879 474.974 65.4436 474.974 71.6361C474.974 76.9917 478.07 80.6737 487.275 82.431L500.33 84.7741C515.727 87.5356 522.589 94.7323 522.589 107.034C522.589 119.335 512.631 129.293 492.631 129.293C472.631 129.293 461.836 117.745 461.836 105.444H461.92Z" fill="white"/>
<path d="M540.674 114.644V61.5893H528.373V50.7944H540.674V29.2881H552.222V50.7944H569.879V61.5893H552.222V112.301C552.222 115.397 553.729 116.903 556.825 116.903H567.453V127.698H554.482C546.03 127.698 540.674 122.342 540.674 114.644Z" fill="white"/>
<path d="M577.078 105.444C577.078 90.7992 586.283 80.8411 607.789 80.8411H628.543V78.498C628.543 66.9499 621.597 60.0879 610.133 60.0879C598.668 60.0879 591.722 66.1967 590.886 73.1423H579.338C580.091 60.8411 590.886 49.293 610.133 49.293C629.379 49.293 640.091 60.0879 640.091 78.498V127.703H630.133L628.626 118.498H627.873C627.873 118.498 620.928 129.293 604.024 129.293C587.12 129.293 577.078 119.335 577.078 105.444ZM628.543 94.6486V91.5524H607.789C593.982 91.5524 588.543 97.7449 588.543 105.36C588.543 112.975 593.898 118.414 603.94 118.414C619.338 118.414 628.543 109.209 628.543 94.5649V94.6486Z" fill="white"/>
<path d="M655.892 50.8789H665.85L667.357 58.5777H668.11C671.206 53.9751 674.219 50.8789 682.754 50.8789H695.809V61.6739H684.26C673.465 61.6739 667.357 67.7827 667.357 78.5777V127.783H655.809V50.8789H655.892Z" fill="white"/>
<path d="M82.7565 59.0785L53.2168 40.5848L63.3423 -0.000976562H68.1959L82.7565 59.0785Z" fill="white"/>
<path d="M82.7565 88.7891L53.2168 107.283L63.2586 147.869H68.1122L82.6729 88.7891H82.7565Z" fill="white"/>
<path d="M0 76.3153L48.7029 88.784L72.4686 73.8886L48.7029 58.9932L0 71.4618V76.3153Z" fill="white"/>
<path d="M131.469 71.4618L82.7656 58.9932V88.784L131.469 76.3153V71.4618Z" fill="white"/>
</g>
<defs>
<clipPath id="clip0_1053_595">
<rect width="695.9" height="160" fill="white"/>
</clipPath>
</defs>
</svg>
