<?xml version="1.0" standalone="no"?>
<!DOCTYPE svg PUBLIC "-//W3C//DTD SVG 20010904//EN"
 "http://www.w3.org/TR/2001/REC-SVG-20010904/DTD/svg10.dtd">
<svg version="1.0" xmlns="http://www.w3.org/2000/svg"
 width="828.000000pt" height="514.000000pt" viewBox="0 0 828.000000 514.000000"
 preserveAspectRatio="xMidYMid meet">
<metadata>
Created by potrace 1.16, written by Peter Selinger 2001-2019
</metadata>
<g transform="translate(0.000000,514.000000) scale(0.100000,-0.100000)"
fill="#000000" stroke="none">
<path d="M1040 4140 l0 -100 3045 0 3045 0 0 100 0 100 -3045 0 -3045 0 0
-100z"/>
<path d="M4501 3462 c-93 -50 -90 -188 4 -228 99 -41 205 19 205 116 0 100
-116 162 -209 112z"/>
<path d="M1610 2775 l0 -645 110 0 110 0 0 645 0 645 -110 0 -110 0 0 -645z"/>
<path d="M6168 3310 l-3 -111 -94 56 c-51 30 -97 55 -101 55 -5 0 -23 -25 -41
-56 -26 -46 -29 -58 -18 -65 8 -5 49 -27 91 -49 42 -22 79 -44 82 -48 2 -4
-38 -31 -90 -60 -52 -29 -94 -55 -94 -58 0 -3 16 -29 35 -59 l34 -54 93 54
c51 30 96 55 101 55 4 0 7 -50 7 -110 l0 -111 63 3 62 3 3 108 c1 59 6 107 10
107 4 -1 48 -25 97 -55 100 -59 95 -60 138 17 l27 47 -95 51 c-52 28 -95 54
-95 58 0 4 41 29 90 55 50 27 90 53 90 59 0 18 -54 108 -65 108 -5 -1 -50 -25
-100 -55 l-90 -53 -3 109 -3 109 -64 0 -64 0 -3 -110z"/>
<path d="M2420 3054 c-100 -21 -200 -75 -258 -139 -85 -93 -121 -190 -122
-326 -1 -274 205 -469 495 -469 232 0 412 124 475 327 22 72 26 189 9 262 -28
123 -128 248 -241 301 -120 56 -236 71 -358 44z m245 -205 c118 -59 173 -211
129 -360 -21 -71 -99 -151 -164 -169 -146 -41 -279 11 -342 134 -30 58 -36
176 -13 247 24 70 95 142 161 163 69 22 168 15 229 -15z"/>
<path d="M3570 3063 c-149 -23 -278 -103 -343 -214 -41 -70 -60 -160 -55 -259
8 -144 68 -256 177 -332 82 -57 151 -80 262 -86 118 -6 212 19 283 73 26 19
48 35 51 35 12 0 4 -112 -12 -159 -35 -110 -125 -161 -282 -161 -102 0 -170
17 -269 66 -41 20 -75 34 -77 32 -11 -11 -85 -145 -85 -154 0 -18 132 -83 217
-106 116 -32 351 -31 443 1 155 53 242 151 276 310 10 51 14 167 14 514 l0
448 -102 -3 -103 -3 -3 -63 -3 -63 -35 30 c-84 75 -231 113 -354 94z m197
-198 c117 -35 187 -129 186 -250 0 -70 -18 -117 -63 -169 -133 -151 -421 -104
-484 79 -76 223 123 411 361 340z"/>
<path d="M4467 3064 c-4 -4 -7 -216 -7 -471 l0 -463 110 0 110 0 -2 468 -3
467 -101 3 c-55 1 -103 0 -107 -4z"/>
<path d="M5293 3060 c-200 -36 -347 -172 -389 -359 -48 -214 50 -432 235 -525
165 -84 414 -71 544 28 40 30 107 109 107 125 0 5 -36 29 -81 55 l-81 47 -34
-39 c-49 -58 -113 -85 -200 -85 -173 1 -279 110 -278 288 0 93 21 149 75 204
54 55 111 76 204 76 91 0 136 -19 194 -79 19 -20 39 -36 43 -36 16 0 157 85
157 95 0 20 -60 89 -110 126 -88 67 -259 101 -386 79z"/>
<path d="M1042 1113 l3 -98 3043 -3 3042 -2 0 100 0 100 -3045 0 -3046 0 3
-97z"/>
</g>
</svg>
