<svg preserveAspectRatio="xMidYMid meet" data-bbox="-0.021 0.002 590.467 585.94" viewBox="-0.021 0.002 590.467 585.94" height="781.281" width="787.252" xmlns="http://www.w3.org/2000/svg" data-type="shape" role="presentation" aria-hidden="true" aria-label="">
    <g>
        <path d="M200.545.734c-14.3 1.7-27.6 6.2-42.9 14.5-30.5 16.6-54.1 49.6-61.3 85.9-2.7 13.2-2.8 34.2-.4 48 8.5 48.8 47.8 90.8 95 101.6 3 .7 21.3 1.4 46.5 1.8l41.5.6.3 7c.2 3.8 0 8-.3 9.2l-.5 2.3-30.8.1c-16.9 0-44.4.4-61.2.8-29.5.8-30.7.9-36.7 3.3-13.3 5.5-24.2 15.6-30.7 28.5-7.2 14.3-7 13.4-7.6 42.8l-.5 27-16.5.6c-18.9.7-22 1.2-31.2 4.9-10.9 4.5-15.8 7.8-25.3 17.4-22.4 22.7-33.8 56-32.2 94.1.6 15.3 2.1 23.5 6.5 36.5 5.2 15.3 10.6 24.4 20.9 35.1 5.6 5.9 6.1 6.7 4.3 7.2-1.1.3-9.1.6-17.8.6-14.1.2-15.9.4-17.6 2.1-2.9 2.8-2.7 8.7.3 11.1 2.2 1.8 7.7 1.9 164.5 2.1 89.1.2 219.9.1 290.6-.1 128.1-.3 128.5-.3 130.8-2.4 3-2.8 2.9-7.7-.1-10.5-1.9-1.8-3.5-2.2-9.3-2.2-3.8 0-14.6-.3-24.1-.7l-17.2-.6 4.9-3.9c10.6-8.4 21.8-26.8 26.4-43.3 3.5-12.2 4.6-20.7 4.6-35.4 0-15.6-2.1-29.1-7-44-12.3-38.1-33.9-61.4-61.7-66.7-4.8-.9-14.1-1.4-25.8-1.4-15.8 0-18.4-.2-18.9-1.6-.3-.9-.6-12.5-.6-25.9 0-22.9-.1-24.9-2.4-31.9-6.3-19.9-20.5-35.6-37-40.8-5.6-1.8-10-2-50.4-2.3-24.3-.2-44.7-.7-45.2-1-.6-.3-1-4.6-1-9.5v-8.9l38.8-.3c43.2-.5 43.5-.5 63.5-8.5 18.5-7.4 37.6-21.5 49.8-36.9 31-39 38-88.2 18.9-132.1-2.8-6.5-7.7-15.6-10.8-20.3-6.5-9.9-25-28.9-33.5-34.4-13.2-8.6-31.7-16.3-45.1-18.7-7.7-1.4-193.5-2.2-204.5-.8m207.1 18.6c19.2 5.4 34.8 14.3 47.8 27.2 9.6 9.6 14.7 16.7 20.9 28.8 14.6 29.2 15.7 59.6 3.2 91.8-4.5 11.6-12 23.3-21.7 33.5-19.9 20.8-42 32-67.3 34.1-6.7.5-51 .8-102.7.6l-90.9-.3-7.5-2.3c-41.2-12.5-72-48.6-77.9-91.5-4.8-34.4 7.6-70.8 32.4-95 15.3-15 35.9-25.7 54.5-28.5 3.8-.5 47.1-.8 104-.7 96.7.1 97.6.2 105.2 2.3m10.7 273.1c6.5 3.5 13.4 10.4 16.5 16.6 5.5 10.9 5.5 10.9 5.6 78.6.1 59.6 0 62.9-1.9 70.3-5.6 21.6-20.6 38.4-42.3 47.6l-6.3 2.6-40.8.3-40.8.3.8-2.8c1.5-5.6.7-38.3-1.1-48.3-7.9-43.5-27.2-71.8-54.8-80.5-7.8-2.5-8.5-2.5-41.8-2.5h-33.9l-.3-25.8c-.4-28.8-1.1-32-8.3-41.5l-3.5-4.6 4.3-3.4c2.3-1.9 5.4-4.2 6.9-5.2 7.1-4.5 5-4.4 124.3-4.2l113 .2zm-266.8 23.2c4.7 4.9 6.4 12.1 5.5 23.2-1 12.2-5 18.8-11.4 19-7.9.2-11.5-6.2-12-21.6-.4-12.4.8-18.3 4.6-22.1 3.9-4 8.6-3.4 13.3 1.5m94.4 76.5c3.2.9 8.1 2.8 10.9 4.3 5 2.7 15.6 12.4 15.6 14.2 0 .6-11.6 1-31.4 1h-31.4l-6.8-8.3c-3.7-4.5-7.2-8.8-7.7-9.5-2.1-2.6 1.9-3.2 23.3-3.2 16.2 0 23 .4 27.5 1.5m263.6 1.7c7.8 2.9 15.5 8.3 19.9 13.9l3.2 3.9h-64.1l-5.4-6.8c-7.2-9-7.1-8.9-5.2-11.9l1.7-2.5 21.7.4c19.9.5 22.1.7 28.2 3m-338.7 4.1c17.9 8.5 30.9 27.4 38.3 55.6 3.2 12 4.3 39.3 2.3 53.1-3.7 25.3-17.1 47.5-33.9 56.4-12.3 6.4-15.2 6.7-62.5 6.4-41.1-.3-42.3-.4-48.5-2.6-24.6-8.9-41.9-35.4-45.3-69.4-4.4-43.1 13.5-85.9 41.4-99.2 4-1.9 8.4-3.7 9.8-3.9 1.4-.3 22.3-.4 46.5-.3l44 .1zm109.7 26.9c2.4 4.7 6.3 14.9 7.3 19l.6 2.8h-64.6l-2.8-8.8c-1.6-4.8-3.7-10.4-4.7-12.4-1.1-2.1-1.9-4-1.9-4.3s14.4-.5 32-.5h32zm260.8.5c3.5 7.2 8.1 20 7.4 20.7-1.2 1.1-65.3.7-65.3-.5 0-.8-5.6-16.1-8.5-23.2-.7-1.6 1.2-1.7 31.7-1.7h32.4zm-74.4 20.6c8.3 25.2 8.8 54.3 1.4 78.3-1.1 3.5-2.4 6.2-2.9 5.9-.4-.3-.6.4-.3 1.5.6 2.2-.3 2.5-2.6 1.1-1-.7-1.9-.4-2.8.7-.7.9 0-2.1 1.6-6.8 4.9-14.5 5.6-19.3 5.6-38.5 0-16.6-.2-18.9-2.9-28.9-1.5-6.1-4.2-14.5-5.9-18.8-2.8-7.3-2.9-8.1-1.7-12l1.2-4.3 3 5.8c1.6 3.2 4.4 10.4 6.3 16m-175.6 17.2c.6 4.2 1.1 8.9 1.1 10.5v3h-63l-.4-2.3c-.9-4.3-2.6-15.4-2.6-17s2.8-1.7 31.9-1.7h31.9zm261.9.2c.7 4.3 1.5 9 1.8 10.6l.6 2.7-33.4-.2-33.3-.3-.6-5.5c-.4-3-1-7.6-1.4-10.3l-.7-4.7h65.8zm-261.5 36.7c.3.7-.1 3.1-.8 5.2-.8 2.2-1.4 3.1-1.5 2.1 0-1.6-2.1-1.7-30.5-1.7h-30.5v-2.3c0-4.6.6-4.7 32.6-4.7 24.8 0 30.3.2 30.7 1.4m263.2-.3c.4.5.4 2 .1 3.2-.5 2.2-.5 2.2-33 2.6-29.7.3-32.6.2-33.2-1.3-.4-1 .1-2.5 1.1-3.6 1.7-1.9 3.3-2 33.1-2 20.9 0 31.5.4 31.9 1.1m-239.7 30.1c.5.7 2.1 4.1 3.5 7.6 3.9 9.5 9.4 18 16.6 25.4l6.4 6.8-5.9.1c-9 .2-61.9-.2-62.1-.5-.2-.1 2.1-2.2 5-4.5 8-6.6 13.4-13.6 19-25.3l5.2-10.7 5.6-.1c3.4 0 6.1.5 6.7 1.2"></path>
        <path d="M251.045 49.634c-19.3 5.1-36.6 19.9-45.6 39.1-4.9 10.6-7 20.8-7 34.5 0 14.6 2 23.7 8.1 35.7 9.6 19.2 23.2 31.4 41.9 37.7 6.5 2.2 7 2.2 82.1 2.1 51 0 77.1-.4 80.4-1.1 2.7-.6 8.7-2.9 13.4-5.1 7.1-3.3 9.9-5.4 17.2-12.8 7.2-7.3 9.5-10.4 13.3-18.2 10.8-22.2 12.3-44.4 4.7-66.7-4-11.5-8.3-18.4-17.6-27.8-6.3-6.4-9.8-9-16.5-12.3-14.6-7.2-13.5-7.1-95-7-66.2.1-73.1.3-79.4 1.9m38.4 45.1c10.2 4.6 16.3 14.1 16.3 25.4.1 12.4-5.4 21-16.6 26-23.4 10.5-45.6-15-33.8-39 4.9-9.8 12.2-14.3 23.6-14.4 4 0 7.5.6 10.5 2m103.8.5c9.8 4.9 15.5 14.2 15.5 25.4.2 20.8-20 34-38.2 24.9-25.8-12.9-17.1-52.8 11.5-52.9 4.5 0 7.3.7 11.2 2.6m-66.5 75.4c2.4 2.7 3.4 3 8.3 3s5.9-.3 8.2-3c3.3-3.7 6.8-3.9 8.4-.5 1.7 3.7-.2 6.8-5.6 9.5-12 5.8-31-.6-27.7-9.4 1.4-3.6 5-3.4 8.4.4"></path>
        <path d="M328.945 335.534c-9.2 5.7-11.9 14.9-7.2 24.1 3.1 6.3 7.6 9 14.7 9 6.6 0 11-2.4 14.7-7.9 3.1-4.6 3.2-12.8.1-18.3-4.4-7.8-15.4-11.2-22.3-6.9"></path>
        <path d="M373.045 335.934c-5.2 3-7.7 6.5-8.3 12-.8 6.7.4 11.3 3.9 15.3 3.7 4.2 6.7 5.6 12.4 5.6 8.4 0 15.3-6.5 16.2-15.2.6-6.5-.2-9.3-4-13.6-5.8-6.6-13.2-8.1-20.2-4.1"></path>
        <path d="M73.345 403.434c-21 5.5-37.4 27-44.6 58.4-2.4 10.7-2.4 34.8.1 45.3 6.4 27.7 20.8 46.8 40.4 53.4 5.8 2 8.2 2.1 49.6 2.1 41.5 0 43.8-.1 49-2.1 16.7-6.2 29.5-23 35.7-46.7 2.9-11.2 3.6-32.7 1.5-45.7-5.9-35.5-23.1-59.4-46.7-65-9.9-2.3-75.8-2.1-85 .3m9.3 47.9c14.1 13.7 14.1 54.1.1 69-7.3 7.8-16.2 4.5-22.2-8-4.1-8.7-5.5-16.9-4.8-29 .8-16.9 7.5-32.5 15.1-35.8 3.5-1.4 7.9-.1 11.8 3.8m88.1-2.1c3.9 3 6.9 7.4 9.5 13.7 4.5 11.2 4.1 35.4-.9 46.6-4.4 10-9.6 15.1-15.3 15.1-6.3 0-15.2-13-17.5-25.4-2.1-11.7-.6-28.7 3.5-38.6 5.1-12.1 13.6-16.8 20.7-11.4"></path>
    </g>
</svg>