<?xml version="1.0" encoding="UTF-8" standalone="no"?>
<!-- Created with Inkscape (http://www.inkscape.org/) -->
<svg xmlns:dc="http://purl.org/dc/elements/1.1/" xmlns:cc="http://creativecommons.org/ns#" xmlns:rdf="http://www.w3.org/1999/02/22-rdf-syntax-ns#" xmlns:svg="http://www.w3.org/2000/svg" xmlns="http://www.w3.org/2000/svg" xmlns:sodipodi="http://sodipodi.sourceforge.net/DTD/sodipodi-0.dtd" xmlns:inkscape="http://www.inkscape.org/namespaces/inkscape" id="svg4173" version="1.1" inkscape:version="0.91 r13725" xml:space="preserve" width="233.63998" height="233.64398" viewBox="0 0 233.63998 233.64398" sodipodi:docname="logo.svg"><metadata id="metadata4179"><rdf:RDF><cc:Work rdf:about=""><dc:format>image/svg+xml</dc:format><dc:type rdf:resource="http://purl.org/dc/dcmitype/StillImage"/><dc:title/></cc:Work></rdf:RDF></metadata><defs id="defs4177"><clipPath clipPathUnits="userSpaceOnUse" id="clipPath4231"><path d="m 21.596,21.864 64.699,0 0,67.23 -64.699,0 0,-67.23 z" id="path4233" inkscape:connector-curvature="0"/></clipPath><clipPath clipPathUnits="userSpaceOnUse" id="clipPath4243"><path d="m 20.331,19.935 67.266,0 0,72.624 -67.266,0 0,-72.624 z" id="path4245" inkscape:connector-curvature="0"/></clipPath><clipPath clipPathUnits="userSpaceOnUse" id="clipPath4415"><path d="m 21.596,21.864 64.699,0 0,67.23 -64.699,0 0,-67.23 z" id="path4417" inkscape:connector-curvature="0"/></clipPath><clipPath clipPathUnits="userSpaceOnUse" id="clipPath4431"><path d="m 20.331,19.935 67.266,0 0,72.624 -67.266,0 0,-72.624 z" id="path4433" inkscape:connector-curvature="0"/></clipPath><clipPath clipPathUnits="userSpaceOnUse" id="clipPath4451"><path d="m 21.596,21.864 64.699,0 0,67.23 -64.699,0 0,-67.23 z" id="path4453" inkscape:connector-curvature="0"/></clipPath><clipPath clipPathUnits="userSpaceOnUse" id="clipPath4467"><path d="m 20.331,19.935 67.266,0 0,72.624 -67.266,0 0,-72.624 z" id="path4469" inkscape:connector-curvature="0"/></clipPath><clipPath clipPathUnits="userSpaceOnUse" id="clipPath5327"><path d="m 21.596,21.864 64.699,0 0,67.23 -64.699,0 0,-67.23 z" id="path5329" inkscape:connector-curvature="0"/></clipPath><clipPath clipPathUnits="userSpaceOnUse" id="clipPath5343"><path d="m 20.331,19.935 67.266,0 0,72.624 -67.266,0 0,-72.624 z" id="path5345" inkscape:connector-curvature="0"/></clipPath><clipPath clipPathUnits="userSpaceOnUse" id="clipPath5343-4"><path d="m 20.331,19.935 67.266,0 0,72.624 -67.266,0 0,-72.624 z" id="path5345-2" inkscape:connector-curvature="0"/></clipPath><clipPath clipPathUnits="userSpaceOnUse" id="clipPath5327-1"><path d="m 21.596,21.864 64.699,0 0,67.23 -64.699,0 0,-67.23 z" id="path5329-6" inkscape:connector-curvature="0"/></clipPath><clipPath clipPathUnits="userSpaceOnUse" id="clipPath4467-1"><path d="m 20.331,19.935 67.266,0 0,72.624 -67.266,0 0,-72.624 z" id="path4469-8" inkscape:connector-curvature="0"/></clipPath><clipPath clipPathUnits="userSpaceOnUse" id="clipPath4451-2"><path d="m 21.596,21.864 64.699,0 0,67.23 -64.699,0 0,-67.23 z" id="path4453-7" inkscape:connector-curvature="0"/></clipPath><clipPath clipPathUnits="userSpaceOnUse" id="clipPath4431-4"><path d="m 20.331,19.935 67.266,0 0,72.624 -67.266,0 0,-72.624 z" id="path4433-7" inkscape:connector-curvature="0"/></clipPath><clipPath clipPathUnits="userSpaceOnUse" id="clipPath4415-5"><path d="m 21.596,21.864 64.699,0 0,67.23 -64.699,0 0,-67.23 z" id="path4417-7" inkscape:connector-curvature="0"/></clipPath><clipPath clipPathUnits="userSpaceOnUse" id="clipPath4243-4"><path d="m 20.331,19.935 67.266,0 0,72.624 -67.266,0 0,-72.624 z" id="path4245-0" inkscape:connector-curvature="0"/></clipPath><clipPath clipPathUnits="userSpaceOnUse" id="clipPath4231-2"><path d="m 21.596,21.864 64.699,0 0,67.23 -64.699,0 0,-67.23 z" id="path4233-6" inkscape:connector-curvature="0"/></clipPath><clipPath id="clipPath4178" clipPathUnits="userSpaceOnUse"><path inkscape:connector-curvature="0" id="path4180" d="m 0,0 71.998,0 0,72.002 L 0,72.002 0,0 Z"/></clipPath><pattern id="pattern4182" height="72.002" width="71.998" y="0" x="0" patternUnits="userSpaceOnUse" patternTransform="matrix(1.00142,0,0,1.00142,1163.92,290.665)"><g id="g4184"><g id="g4186" clip-path="url(#clipPath4178)"><g id="g4188" transform="translate(68.498,65)"><path id="path4190" style="fill:none;stroke:#231f20;stroke-opacity:1;stroke-width:0.25;stroke-linecap:butt;stroke-linejoin:miter;stroke-miterlimit:4;stroke-dasharray:none" d="M 0,0 14.666,0 M -1.667,-6.666 13,-6.666 M 1.833,6.836 l 14.667,0 m -13.667,-30.834 14.667,0 M 7.334,4.168 l -14.668,0 m 18.168,-5.5 -14.668,0 m -3.167,-8.174 14.666,0 m -10.999,-49.002 14.667,0 m -18.334,-4.666 14.667,0 m -9.333,2 14.667,0 m -19.334,5 14.667,0 m -10,8.668 14.667,0 m -18.001,-4.334 14.667,0 m -1.166,35.51 -14.666,0 M 9,-19.83 l -14.666,0 m 17.666,-2 -14.666,0 m 0.332,10.166 14.668,0 m -4.168,-14.176 -14.666,0 m 18.666,-2 -14.666,0 m 9,-2.332 -14.666,0 m 2.832,-14.334 14.668,0 m -12.668,4.334 14.667,0 m -14.667,5.332 14.667,0 m -12,-2.666 14.666,0 m -12.666,5 14.666,0 m -74.831,33.84 0,-14.666 m 2.5,11.666 0,-14.668 m -3.666,5.002 0,-14.666 m 7.334,14.332 0,-14.668 m -9.668,21.668 0,-14.668 m 12,17.668 0,-14.668 m 5.5,14.668 0,-14.668 m 1.334,11.002 0,-14.666 m -3.834,23.832 0,-14.666 m -6.5,12.666 0,-14.666 m -13.5,8.834 14.668,0 M -71.998,0 -57.332,0 m -16.334,-6.666 14.668,0 m 3.666,6.334 14.668,0 m -19.834,-1.834 14.666,0 m -11,-8.174 14.668,0 m -21.334,2.508 14.668,0 m 18.833,4.832 0,-14.664 M -32.498,-6 l 0,-14.664 m 6.001,11.666 0,-14.666 m 1.334,7.33 0,-14.664 m 1.334,22 0,-14.666 M -38.498,-6 l 0,-14.664 m -10.166,11.332 0,-14.666 m 8.5,24.498 0,-14.664 m -1.666,17.998 0,-14.666 m 6.832,9.666 0,-14.668 m 8.501,8.17 -14.667,0 m 6.334,1.998 -14.668,0 m 23.501,-5.498 -14.667,0 m 9,-3.842 -14.668,0 m 23.335,1.842 -14.667,0 m 40.006,18.998 0,-14.666 m -4.674,14.666 0,-14.666 m -7.834,14.666 0,-14.666 m 17.5,13 -14.666,0 m 13.166,-2.5 -14.666,0 m 10.666,-4.508 -14.666,0 m 6.666,1.332 -14.666,0 m 31.666,0.176 -14.666,0 m -23.165,5.832 0,-14.666 m 4.5,11.666 0,-14.666 m -6,11.666 0,-14.664 m 12.665,18.33 0,-14.664 m 9.5,10.666 0,-14.666 m -7.168,23.5 0,-14.668 M -18.334,6 l 0,-14.666 m -10.332,13.334 14.666,0 m -7.497,-1.834 14.665,0 m -23,-1.666 14.666,0 m -13.831,-4.834 14.665,0 m -9,-4.84 14.666,0 m -11,2 14.669,0 m -27.001,0.84 14.666,0 m -19.666,11 0,-14.666 m -1.668,15.334 0,-14.666 m -6,13.998 0,-14.666 m -21.832,-22.002 0,-14.664 m -0.5,31.164 0,-14.664 m 1.166,26.666 0,-14.666 m -2,17.166 0,-14.666 m -2.334,21.834 14.668,0 m -6.334,-1.668 14.666,0 m -20.166,-2.5 14.666,0 m 7.334,-0.666 14.666,0 m -19.666,1.332 14.666,0 m -12.666,2.668 14.666,0 M -43,-2.332 l 14.668,0 m 1.5,-14.84 -14.666,0 m 18.666,-2 -14.666,0 m 9.001,-2.334 -14.667,0 m -7.168,-5.828 0,-14.664 m 3.5,8.664 0,-14.664 m -5.666,18.334 -14.666,0 m 25.666,-4 -14.668,0 m 9.834,-1.834 -14.666,0 m 17.666,-2 -14.666,0 m 27.501,19 0,-14.666 m 1.334,8.83 0,-14.664 m -16.169,19.164 0,-14.664 m 3.166,20 0,-14.666 m 5.334,6.33 0,-14.664 m 3,20.164 0,-14.664 m -1.666,15 0,-14.666 m -4.834,12.33 0,-14.664 m -3.334,1.158 14.669,0 m -12.001,-1.332 14.666,0 m -12,2.666 14.666,0 m -14.666,5.334 14.666,0 m -12,-2.668 14.666,0 m -1.334,2.668 14.667,0 m -25.999,2.332 14.666,0 m 11.999,14.334 14.667,0 m -30.666,-7 14.666,0 m -16.666,2.334 14.666,0 m -41.998,-15.826 14.666,0 m -14.334,2 14.668,0 m -0.834,-10.842 -14.666,0 m 6.332,25.006 0,-14.664 m -2.166,18.166 0,-14.666 m -9,6 14.668,0 m -21.668,1.334 14.668,0 m -13.002,2 14.668,0 m -16,2.666 14.668,0 m -5.334,0 14.666,0 m -21.166,-23.67 0,-14.666 m 2.5,11.666 0,-14.666 m -3.666,5 0,-14.666 m -3,17.002 0,-14.67 m 10.334,12 0,-14.666 m 2.332,24.666 0,-14.666 m 9.5,23.004 0,-14.668 M -10,-53 l 0,-14.666 m 2.834,27.332 0,-14.666 m -3.334,-2 -14.666,0 M -6,-61.166 l -14.666,0 m 12,-2 -14.666,0 m 18.666,3.668 -14.666,0 m 14.332,14 0,-14.668 m -3.5,8.666 0,-14.666 m -11.334,25.332 0,-14.666 m -1.666,12.002 0,-14.668 m -2,8.832 0,-14.666 m 22.166,16.668 0,-14.668 m 1.667,20.668 0,-14.668 m 2.333,17.002 0,-14.668 m -6,-4.842 14.668,0 M -7,-63.174 l 14.666,0 m -9.332,2 14.666,0 m -19.334,5 14.668,0 m -17.668,6.668 14.668,0 m -7,2 14.666,0 m -18,-4.334 14.666,0 M -3.166,-57 l 0,-14.666 m 4.334,17.334 0,-14.668 m -66.166,27.666 14.668,0 m -10,-19.332 14.666,0 m -17.834,16.832 14.668,0 m -10.668,-4.506 14.668,0 m -3.668,3 14.668,0 m -33.834,-0.158 14.668,0 m 2.166,0.5 0,-14.668 m 14.666,17.002 -14.666,0 m 16.5,-10.344 -14.668,0 m 16.334,-1.666 -14.668,0 m 13.17,5 -14.668,0 m 19.334,2.668 -14.668,0 m -5.002,-4.828 0,-14.666 m -6.832,35.502 0,-14.666 m -1.666,20 0,-14.67 m 3,17.67 0,-14.67 m -5.334,13 0,-14.664 m -3.666,13.664 0,-14.664 m 2,19.334 0,-14.67 m 1.332,-21.666 14.668,0 m -21.836,1.666 14.668,0 m -12.834,1.668 14.668,0 m 12,10.668 0,-14.67 m -3.01,21.67 0,-14.668 m -0.656,-2.002 0,-14.666 m 7.334,14.334 0,-14.668 m -9.668,21.67 0,-14.67 m 12,17.67 0,-14.67 m -4.5,5.834 0,-14.668 m -3,18.668 0,-14.666 m 0.168,-1.5 14.667,0 m -12.667,2.334 14.667,0 m -7.667,10.998 0,-14.666 m -4.668,27 0,-14.666 m 22.498,2.332 0,-14.666 m -7,6.666 0,-14.666 m -13.832,39.67 0,-14.67 m -6,-12 14.669,0 m -21.669,1.334 14.668,0 m -22.668,-3.334 14.668,0"/></g><g id="g4192" transform="translate(7.832,1.332)"><path id="path4194" style="fill:none;stroke:#231f20;stroke-opacity:1;stroke-width:0.25;stroke-linecap:butt;stroke-linejoin:miter;stroke-miterlimit:4;stroke-dasharray:none" d="M 0,0 14.668,0 M 15,6.668 l 14.669,0 m -36.001,6 14.668,0 m -5.334,0 14.666,0 m -9,27.16 14.666,0 M 0,42.67 l 14.668,0 m -15.834,-5.336 14.668,0 M -8.5,39.67 l 14.668,0 m 33.166,13.666 0,-14.666 M 43,43.334 43,28.67 m 1.992,21.998 0,-14.668 m 5.842,17.336 0,-14.666 m 1.332,11 0,-14.666 m -3.832,23.832 0,-14.666 m -7.5,12.666 0,-14.666 m -2,2.492 14.666,0 m -20.997,-22.328 0,-14.666 m 1.334,7.332 0,-14.666 m -3.333,25 0,-14.666 m 4.666,11.666 0,-14.666 m 21.999,41.336 0,-14.67 M 47,45.67 47,31.004 m 8.5,24.498 0,-14.668 m 3.669,19.336 0,-14.666 m 1.507,12.498 0,-14.664 m 1.993,9.832 0,-14.666 m 6.5,8.834 -14.669,0 m 7.669,2.998 -14.669,0 m 9.003,2.334 -14.669,0 m 19,6.334 -14.665,0 m 23.5,-15.166 -14.669,0 m 9,-3.842 -14.666,0 m 23.335,1.842 -14.669,0 m -23.997,-6.004 0,-14.664 m 2.5,11.664 0,-14.664 m 15.331,11.664 0,-14.664 m -12.831,21.164 0,-14.664 m -9,6 14.666,0 m -9,-4.842 14.665,0 m 8,29.176 14.666,0 m -4.166,-14.176 -14.668,0 m 18.668,-2 -14.668,0 m 9.003,-2.332 -14.669,0 m -7.166,-5.826 0,-14.668 m 3.5,8.668 0,-14.668 m -4,7 0,-14.666 M 42.5,16.334 42.5,1.668 m 9.834,15.836 -14.665,0 m 6.665,2.666 -14.665,0 m 4.334,3 -14.669,0 m 24.832,15.664 0,-14.664 M 31.169,7.002 l 0,-14.668 m 25.997,31.5 0,-14.666 m -6.834,26.002 0,-14.666 m 3.167,20 0,-14.666 m -6.667,3.332 0,-14.666 m 12,17.666 0,-14.666 m 3,20.166 0,-14.666 m -1.666,15 0,-14.67 m -4.834,12.336 0,-14.666 M 52,22.162 l 14.666,0 m -11.332,-3 14.666,0 m -12.668,4.334 14.668,0 m -14.668,5.332 14.668,0 m -12.001,-2.666 14.667,0 m -12.667,5 14.667,0 M 30.334,8.828 45,8.828 m -10.334,2.666 14.666,0 M 34,16.162 l 14.666,0 m -30.332,10 14.669,0 m 10.329,-1.158 14.668,0 m -14.334,2 14.666,0 m -9.166,14.166 0,-14.666 M 47,44.67 47,30.004 M 40.666,39 l 0,-14.666 m -2.666,9 14.666,0 m -12,8.67 14.668,0 m -11.668,-10.842 14.668,0 m 2.332,32.506 14.668,0 M 59,57.002 l 14.666,0 m -77.664,10.834 -14.668,0 m 18.168,-5.5 -14.668,0 m -3.168,-8.174 14.666,0 M -14.666,5.16 0,5.16 m -18.334,-4.666 14.668,0 m -9.334,2 14.668,0 m -19.334,5 14.666,0 m -10,8.668 14.668,0 m -18.002,-4.334 14.668,0 m -1.166,35.51 -14.666,0 m 15.166,-3.5 -14.666,0 m 17.666,-2 -14.666,0 m 0.332,10.166 14.668,0 m -4.168,-14.176 -14.666,0 m 18.666,-2 -14.666,0 m 9,-2.332 -14.666,0 m 2.832,-14.334 14.668,0 m -12.668,4.334 14.666,0 m -14.666,5.332 14.666,0 m -12,-2.666 14.666,0 m -12.666,5 14.666,0 m 0.502,-25.328 0,-14.668 M 2.502,8.168 2.502,-6.5 m 52.998,8.834 0,-14.666 M 53,3 53,-11.666 m -23.331,14 0,-14.666 m 31.165,14.666 0,-14.666 m -25.5,16.5 0,-14.668 M 9,3.002 9,-11.666 M -6,3.168 -6,-11.5 M -1,5.168 -1,-9.5 m 28.002,11.834 0,-14.666 m 23.664,23 0,-14.666 m -25.33,14.666 0,-14.668 m -29.334,71.836 -14.666,0 m 13.166,-2.5 -14.666,0 m 19.666,-3 -14.666,0 m -3.17,-8.174 14.668,0 m -11,-49.002 14.668,0 m -18.334,-4.666 14.666,0 m -9.332,2 14.666,0 m -19.334,5 14.668,0 m -17.668,6.668 14.668,0 m -7,2 14.666,0 m -18,-4.334 14.666,0 m -1.164,35.51 -14.668,0 m 15.168,-3.5 -14.668,0 m 17.668,-2 -14.668,0 m 0.334,10.166 14.666,0 m -4.166,-14.176 -14.668,0 m 18.668,-2 -14.668,0 m 9.002,-2.332 -14.668,0 m -0.5,-11.334 14.666,0 m -11.332,-3 14.666,0 m -12.668,4.334 14.668,0 m -14.668,5.332 14.668,0 M -12,26.162 l 14.668,0 m -12.668,5 14.668,0 m -16,32.506 14.668,0 m -16.334,-6.666 14.666,0 m 48.998,25.668 0,-14.666 m 1.5,16.166 0,-14.666 m 5.334,9.166 0,-14.666 m 4.334,17.334 0,-14.668 M 11.5,83.836 11.5,69.17 m 6.502,13.832 0,-14.666 m 7.334,14.334 0,-14.668 m -2.168,15.834 0,-14.668 m 6.168,15.834 0,-14.666 m 17.83,14.666 0,-14.666 m -7,6.666 0,-14.666 m -8.997,16.668 0,-14.668 m -26.001,13.5 0,-14.668 m -2.666,17.002 0,-14.668 M 55.5,74.336 55.5,59.67 M 53,75.002 53,60.336 m -23.331,14 0,-14.666 m 31.165,14.666 0,-14.666 m -25.5,16.5 0,-14.668 M 9,75.004 9,60.336 M -6,75.17 -6,60.502 m 5,16.668 0,-14.668 m 28.002,11.834 0,-14.666 m 23.664,23 0,-14.666 m -25.33,14.666 0,-14.668"/></g></g></g></pattern><clipPath id="clipPath4206" clipPathUnits="userSpaceOnUse"><path inkscape:connector-curvature="0" id="path4208" d="m 960.36,346.28 221.279,0 0,220.8 -221.279,0 0,-220.8 z"/></clipPath><clipPath id="clipPath4530" clipPathUnits="userSpaceOnUse"><path inkscape:connector-curvature="0" id="path4532" d="m 0,0 1287,0 0,648 L 0,648 0,0 Z"/></clipPath><clipPath id="clipPath4626" clipPathUnits="userSpaceOnUse"><path inkscape:connector-curvature="0" id="path4628" d="m 0,0 1287,0 0,648 L 0,648 0,0 Z"/></clipPath><clipPath id="clipPath4726" clipPathUnits="userSpaceOnUse"><path inkscape:connector-curvature="0" id="path4728" d="m 0,0 1287,0 0,648 L 0,648 0,0 Z"/></clipPath><clipPath id="clipPath4818" clipPathUnits="userSpaceOnUse"><path inkscape:connector-curvature="0" id="path4820" d="m 0,0 1287,0 0,648 L 0,648 0,0 Z"/></clipPath><clipPath id="clipPath5650" clipPathUnits="userSpaceOnUse"><path inkscape:connector-curvature="0" id="path5652" d="m 459,35.041 41.728,0 0,180.42 -41.728,0 0,-180.42 z"/></clipPath><clipPath id="clipPath5686" clipPathUnits="userSpaceOnUse"><path inkscape:connector-curvature="0" id="path5688" d="m 459,38.723 36.028,0 0,175.013 -36.028,0 0,-175.013 z"/></clipPath><clipPath id="clipPath5702" clipPathUnits="userSpaceOnUse"><path inkscape:connector-curvature="0" id="path5704" d="m 459,35.041 41.728,0 0,180.42 -41.728,0 0,-180.42 z"/></clipPath><clipPath id="clipPath4206-8" clipPathUnits="userSpaceOnUse"><path inkscape:connector-curvature="0" id="path4208-1" d="m 960.36,346.28 221.279,0 0,220.8 -221.279,0 0,-220.8 z"/></clipPath><clipPath clipPathUnits="userSpaceOnUse" id="clipPath18"><path d="m 73.292,443.052 c 0,-48.162 39.042,-87.206 87.204,-87.206 l 0,0 c 48.164,0 87.206,39.044 87.206,87.206 l 0,0 c 0,48.163 -39.042,87.208 -87.206,87.208 l 0,0 c -48.162,0 -87.204,-39.045 -87.204,-87.208 m 15.193,0 c 0,39.772 32.239,72.014 72.011,72.014 l 0,0 c 39.772,0 72.013,-32.242 72.013,-72.014 l 0,0 c 0,-39.769 -32.241,-72.013 -72.013,-72.013 l 0,0 c -39.772,0 -72.011,32.244 -72.011,72.013" id="path16" inkscape:connector-curvature="0"/></clipPath><linearGradient x1="0" y1="0" x2="1" y2="0" gradientUnits="userSpaceOnUse" gradientTransform="matrix(174.40918,0,0,174.40918,73.254395,443.06348)" spreadMethod="pad" id="linearGradient38"><stop style="stop-opacity:1;stop-color:#69c5f0" offset="0" id="stop24"/><stop style="stop-opacity:1;stop-color:#69c5f0" offset="0.0500031" id="stop26"/><stop style="stop-opacity:1;stop-color:#3f88d0" offset="0.38163422" id="stop28"/><stop style="stop-opacity:1;stop-color:#3f88d0" offset="0.5" id="stop30"/><stop style="stop-opacity:1;stop-color:#2c61b5" offset="0.73155617" id="stop32"/><stop style="stop-opacity:1;stop-color:#2c61b5" offset="0.949997" id="stop34"/><stop style="stop-opacity:1;stop-color:#2c61b5" offset="1" id="stop36"/></linearGradient><clipPath clipPathUnits="userSpaceOnUse" id="clipPath48"><path d="m 95.867,433.685 c 21.232,-3.019 42.932,-4.58 64.994,-4.58 l 0,0 c 22.064,0 43.766,1.561 64.997,4.58 l 0,0 c -21.231,3.014 -42.933,4.576 -64.997,4.576 l 0,0 c -22.062,0 -43.762,-1.562 -64.994,-4.576" id="path46" inkscape:connector-curvature="0"/></clipPath><linearGradient x1="0" y1="0" x2="1" y2="0" gradientUnits="userSpaceOnUse" gradientTransform="matrix(129.98975,0,0,129.98975,95.844238,433.65674)" spreadMethod="pad" id="linearGradient68"><stop style="stop-opacity:1;stop-color:#69c5f0" offset="0" id="stop54"/><stop style="stop-opacity:1;stop-color:#69c5f0" offset="0.0500031" id="stop56"/><stop style="stop-opacity:1;stop-color:#3f88d0" offset="0.38163422" id="stop58"/><stop style="stop-opacity:1;stop-color:#3f88d0" offset="0.5" id="stop60"/><stop style="stop-opacity:1;stop-color:#2c61b5" offset="0.73155617" id="stop62"/><stop style="stop-opacity:1;stop-color:#2c61b5" offset="0.949997" id="stop64"/><stop style="stop-opacity:1;stop-color:#2c61b5" offset="1" id="stop66"/></linearGradient><clipPath clipPathUnits="userSpaceOnUse" id="clipPath82"><path d="m 0,841.89 595.275,0 L 595.275,0 0,0 Z" id="path80" inkscape:connector-curvature="0"/></clipPath><linearGradient x1="0" y1="0" x2="1" y2="0" gradientUnits="userSpaceOnUse" gradientTransform="matrix(129.9883,0,0,129.9883,366.20605,433.53076)" spreadMethod="pad" id="linearGradient374"><stop style="stop-opacity:1;stop-color:#69c5f0" offset="0" id="stop360"/><stop style="stop-opacity:1;stop-color:#69c5f0" offset="0.0500031" id="stop362"/><stop style="stop-opacity:1;stop-color:#3f88d0" offset="0.38163422" id="stop364"/><stop style="stop-opacity:1;stop-color:#3f88d0" offset="0.5" id="stop366"/><stop style="stop-opacity:1;stop-color:#2c61b5" offset="0.73155617" id="stop368"/><stop style="stop-opacity:1;stop-color:#2c61b5" offset="0.949997" id="stop370"/><stop style="stop-opacity:1;stop-color:#2c61b5" offset="1" id="stop372"/></linearGradient><clipPath clipPathUnits="userSpaceOnUse" id="clipPath384"><path d="m 0,841.89 595.275,0 L 595.275,0 0,0 Z" id="path382" inkscape:connector-curvature="0"/></clipPath></defs><sodipodi:namedview pagecolor="#ffffff" bordercolor="#666666" borderopacity="1" objecttolerance="10" gridtolerance="10" guidetolerance="10" inkscape:pageopacity="0" inkscape:pageshadow="2" inkscape:window-width="1858" inkscape:window-height="1053" id="namedview4175" showgrid="false" fit-margin-top="0" fit-margin-left="0" fit-margin-right="0" fit-margin-bottom="0" inkscape:zoom="1" inkscape:cx="202.828" inkscape:cy="-136.16806" inkscape:window-x="-8" inkscape:window-y="-8" inkscape:window-maximized="1" inkscape:current-layer="g4181"/><g id="g4181" inkscape:groupmode="layer" inkscape:label="legacy-brochure" transform="matrix(1.25,0,0,-1.25,194.61115,408.59097)"><g id="g5595" transform="matrix(0.98287994,0,0,0.98287994,-1.0654317,3.9960829)"><g id="g330" transform="matrix(1.0666666,0,0,1.0666666,-62.232929,309.79299)"><path d="m 0,0 c -39.482,0 -71.604,-32.121 -71.604,-71.604 0,-39.482 32.122,-71.603 71.604,-71.603 39.482,0 71.602,32.121 71.602,71.603 C 71.602,-32.121 39.482,0 0,0 m 0,-144.027 c -39.936,0 -72.422,32.49 -72.422,72.423 0,39.934 32.486,72.423 72.422,72.423 39.934,0 72.424,-32.489 72.424,-72.423 0,-39.933 -32.49,-72.423 -72.424,-72.423" style="fill:#1f4899;fill-opacity:1;fill-rule:nonzero;stroke:none" id="path332" inkscape:connector-curvature="0"/></g><path d="m -65.087009,233.67886 6.491733,0 0,24.4224 -6.491733,0 z" style="fill:#1f4899;fill-opacity:1;fill-rule:nonzero;stroke:none" id="path334" inkscape:connector-curvature="0"/><g id="g336" transform="matrix(1.0666666,0,0,1.0666666,-30.395491,258.10233)"><path d="m 0,0 0,-4.771 7.656,0 0,-18.126 6.084,0 0,18.126 7.655,0 0,4.771 z" style="fill:#1f4899;fill-opacity:1;fill-rule:nonzero;stroke:none" id="path338" inkscape:connector-curvature="0"/></g><g id="g340" transform="matrix(1.0666666,0,0,1.0666666,-39.43709,248.4346)"><path d="m 0,0 -5.086,0 c -1.352,0 -2.445,0.559 -2.445,2.146 0,1.592 1.093,2.147 2.445,2.147 l 10.936,0 0,4.77 -11.657,0 c -4.351,0 -7.881,-2.512 -7.881,-6.917 0,-4.404 3.53,-6.916 7.881,-6.916 l 5.233,0 c 1.349,0 2.445,-0.558 2.445,-2.15 0,-1.588 -1.096,-2.144 -2.445,-2.144 l -12.27,0 0,-4.77 12.844,0 c 4.354,0 7.879,2.508 7.879,6.914 C 7.879,-2.52 4.354,0 0,0" style="fill:#1f4899;fill-opacity:1;fill-rule:nonzero;stroke:none" id="path342" inkscape:connector-curvature="0"/></g><g id="g344" transform="matrix(1.0666666,0,0,1.0666666,-84.847541,258.10233)"><path d="m 0,0 -8.607,-20.603 -8.205,9.153 10.259,11.45 -6.949,0 -9.723,-10.87 0,10.87 -6.087,0 0,-22.897 6.087,0 0,10.869 9.723,-10.869 10.121,0 6.969,17.267 5.062,-12.693 -8.046,0 1.912,-4.574 14.226,0 L 7.176,0 Z" style="fill:#1f4899;fill-opacity:1;fill-rule:nonzero;stroke:none" id="path346" inkscape:connector-curvature="0"/></g><g transform="matrix(1.0666666,0,0,1.0666666,-521.75898,-239.05284)" id="g356"><g id="g358"><path d="m 366.177,433.572 c 21.232,-3.019 42.932,-4.58 64.996,-4.58 l 0,0 c 22.063,0 43.762,1.561 64.992,4.58 l 0,0 c -21.23,3.015 -42.929,4.577 -64.992,4.577 l 0,0 c -22.064,0 -43.764,-1.562 -64.996,-4.577" style="fill:url(#linearGradient374);stroke:none" id="path376" inkscape:connector-curvature="0"/></g></g><g id="g386" transform="matrix(1.0666666,0,0,1.0666666,-127.41426,172.75129)"><path d="M 0,0 -1.063,1.211 1.564,3.516 1.541,3.541 -2.84,3.238 -4.012,4.57 -0.01,4.814 1.754,10.213 2.924,8.879 1.58,4.936 3.291,5.031 4.992,6.521 6.055,5.313 Z" style="fill:#1f4899;fill-opacity:1;fill-rule:nonzero;stroke:none" id="path388" inkscape:connector-curvature="0"/></g><g id="g390" transform="matrix(1.0666666,0,0,1.0666666,-133.0038,186.67001)"><path d="m 0,0 c -1.416,-0.996 -1.824,-2.213 -1.135,-3.191 0.688,-0.979 1.971,-1.01 3.387,-0.012 1.406,0.988 1.867,2.242 1.18,3.221 C 2.744,0.996 1.406,0.988 0,0 M 3.197,-4.549 C 1.053,-6.057 -1.041,-5.73 -2.266,-3.988 -3.492,-2.242 -3.082,-0.16 -0.947,1.344 1.191,2.846 3.344,2.564 4.57,0.82 5.797,-0.928 5.334,-3.047 3.197,-4.549" style="fill:#1f4899;fill-opacity:1;fill-rule:nonzero;stroke:none" id="path392" inkscape:connector-curvature="0"/></g><g id="g394" transform="matrix(1.0666666,0,0,1.0666666,-136.49959,191.85135)"><path d="M 0,0 -0.502,0.918 C -0.998,1.824 -1.652,2.113 -2.406,1.699 -3.17,1.281 -3.156,0.643 -2.66,-0.266 L -2.156,-1.18 Z M 2.457,4.512 0.578,1.594 1.117,0.611 3.789,2.076 4.562,0.662 -2.502,-3.205 -3.85,-0.744 c -0.81,1.482 -0.937,2.937 0.686,3.828 1.059,0.578 2.01,0.404 2.768,-0.234 l 1.992,3.234 z" style="fill:#1f4899;fill-opacity:1;fill-rule:nonzero;stroke:none" id="path396" inkscape:connector-curvature="0"/></g><g id="g398" transform="matrix(1.0666666,0,0,1.0666666,-143.51004,196.79087)"><path d="M 0,0 -1.92,4.553 -0.686,5.072 0.607,2.006 2.322,2.727 1.223,5.336 2.465,5.859 3.566,3.252 5.551,4.088 4.211,7.27 5.453,7.793 7.42,3.131 Z" style="fill:#1f4899;fill-opacity:1;fill-rule:nonzero;stroke:none" id="path400" inkscape:connector-curvature="0"/></g><g id="g402" transform="matrix(1.0666666,0,0,1.0666666,-143.05383,210.10756)"><path d="m 0,0 -0.775,-0.486 c -0.731,-0.485 -1.549,-0.963 -2.313,-1.446 l 0.014,-0.041 c 0.904,0.061 1.847,0.096 2.72,0.114 l 0.913,0.027 z m 1.094,0.699 0.761,-2.5 2.143,0.063 0.477,-1.559 -8.454,0.115 -0.552,1.809 6.943,4.83 0.494,-1.613 z" style="fill:#1f4899;fill-opacity:1;fill-rule:nonzero;stroke:none" id="path404" inkscape:connector-curvature="0"/></g><g id="g406" transform="matrix(1.0666666,0,0,1.0666666,-145.60583,221.9867)"><path d="m 0,0 -0.834,-0.369 c -0.793,-0.373 -1.674,-0.727 -2.498,-1.094 l 0.006,-0.045 c 0.902,-0.072 1.842,-0.168 2.709,-0.279 l 0.906,-0.106 z m 1.187,0.533 0.391,-2.582 2.129,-0.252 0.242,-1.611 -8.345,1.34 -0.284,1.873 7.571,3.767 0.254,-1.666 z" style="fill:#1f4899;fill-opacity:1;fill-rule:nonzero;stroke:none" id="path408" inkscape:connector-curvature="0"/></g><g id="g410" transform="matrix(1.0666666,0,0,1.0666666,-144.13916,229.22425)"><path d="M 0,0 C -0.064,1.5 -0.91,2.402 -2.869,2.313 -4.836,2.227 -5.535,1.26 -5.467,-0.242 l 0.022,-0.498 5.468,0.24 z m -6.658,-2.406 -0.098,2.207 c -0.109,2.457 1.098,4.035 3.815,4.156 2.707,0.117 4.123,-1.344 4.226,-3.715 l 0.102,-2.293 z" style="fill:#1f4899;fill-opacity:1;fill-rule:nonzero;stroke:none" id="path412" inkscape:connector-curvature="0"/></g><g id="g414" transform="matrix(1.0666666,0,0,1.0666666,-151.52668,235.20334)"><path d="M 0,0 0.094,1.686 4.066,2.527 C 4.973,2.729 5.785,2.846 6.701,3.055 L 6.705,3.109 C 5.816,3.41 5.023,3.641 4.146,3.939 L 0.295,5.207 0.385,6.836 8.287,3.912 8.178,2.002 Z" style="fill:#1f4899;fill-opacity:1;fill-rule:nonzero;stroke:none" id="path416" inkscape:connector-curvature="0"/></g><g id="g418" transform="matrix(1.0666666,0,0,1.0666666,-145.30172,247.4971)"><path d="m 0,0 -0.91,-0.104 c -0.861,-0.123 -1.813,-0.199 -2.707,-0.304 l -0.006,-0.043 c 0.84,-0.336 1.705,-0.711 2.5,-1.074 l 0.834,-0.368 z M 1.289,0.156 0.895,-2.426 2.855,-3.297 2.607,-4.91 -4.963,-1.146 -4.676,0.723 3.672,2.07 3.418,0.402 Z" style="fill:#1f4899;fill-opacity:1;fill-rule:nonzero;stroke:none" id="path420" inkscape:connector-curvature="0"/></g><g id="g422" transform="matrix(1.0666666,0,0,1.0666666,-149.29543,253.65134)"><path d="M 0,0 0.424,1.584 5.172,2.735 7.061,3.063 7.072,3.118 C 6.242,3.25 5.184,3.408 4.301,3.643 L 1.199,4.473 1.592,5.945 9.369,3.865 8.949,2.289 4.184,1.152 2.301,0.814 2.287,0.76 C 3.148,0.607 4.158,0.463 5.051,0.223 L 8.174,-0.615 7.779,-2.084 Z" style="fill:#1f4899;fill-opacity:1;fill-rule:nonzero;stroke:none" id="path424" inkscape:connector-curvature="0"/></g><g id="g426" transform="matrix(1.0666666,0,0,1.0666666,-142.55794,261.48985)"><path d="m 0,0 c -2.475,0.964 -3.307,3.119 -2.568,5.015 0.369,0.952 1.121,1.536 1.816,1.826 l 0.647,-1.16 C -0.615,5.444 -1.047,5.113 -1.268,4.543 -1.711,3.409 -1.068,2.179 0.545,1.549 2.178,0.916 3.459,1.306 3.922,2.494 4.17,3.132 4.062,3.756 3.785,4.332 l 1.24,0.429 C 5.504,3.863 5.578,2.912 5.199,1.938 4.465,0.042 2.504,-0.973 0,0" style="fill:#1f4899;fill-opacity:1;fill-rule:nonzero;stroke:none" id="path428" inkscape:connector-curvature="0"/></g><g id="g430" transform="matrix(1.0666666,0,0,1.0666666,-142.97884,271.84291)"><path d="M 0,0 2.238,4.407 3.43,3.801 1.924,0.829 3.582,-0.014 4.863,2.511 6.064,1.9 4.785,-0.625 6.705,-1.599 8.27,1.477 9.473,0.866 7.18,-3.646 Z" style="fill:#1f4899;fill-opacity:1;fill-rule:nonzero;stroke:none" id="path432" inkscape:connector-curvature="0"/></g><g id="g434" transform="matrix(1.0666666,0,0,1.0666666,-131.70172,277.37209)"><path d="M 0,0 C 0.814,1.264 0.643,2.485 -1.004,3.547 -2.66,4.611 -3.787,4.226 -4.6,2.965 L -4.871,2.543 -0.27,-0.418 Z m -6.822,1.885 1.195,1.857 c 1.33,2.069 3.227,2.657 5.514,1.186 2.275,-1.469 2.588,-3.48 1.302,-5.471 l -1.244,-1.932 z" style="fill:#1f4899;fill-opacity:1;fill-rule:nonzero;stroke:none" id="path436" inkscape:connector-curvature="0"/></g><g id="g438" transform="matrix(1.0666666,0,0,1.0666666,-131.09959,290.48259)"><path d="M 0,0 1.037,1.23 7.199,-3.957 6.158,-5.188 Z" style="fill:#1f4899;fill-opacity:1;fill-rule:nonzero;stroke:none" id="path440" inkscape:connector-curvature="0"/></g><g id="g442" transform="matrix(1.0666666,0,0,1.0666666,-127.75794,294.38467)"><path d="M 0,0 1.16,1.164 5.848,-0.205 7.65,-0.865 7.686,-0.83 C 7.031,-0.297 6.191,0.371 5.545,1.015 L 3.273,3.282 4.348,4.359 10.051,-1.321 8.898,-2.48 4.201,-1.086 2.4,-0.443 2.361,-0.48 C 3.033,-1.041 3.834,-1.672 4.488,-2.324 L 6.777,-4.607 5.701,-5.685 Z" style="fill:#1f4899;fill-opacity:1;fill-rule:nonzero;stroke:none" id="path444" inkscape:connector-curvature="0"/></g><g id="g446" transform="matrix(1.0666666,0,0,1.0666666,-116.19965,295.18777)"><path d="M 0,0 0.016,1.442 C 0.799,1.394 1.617,1.596 2.166,2.04 2.816,2.569 2.938,3.129 2.58,3.569 2.201,4.032 1.705,3.866 0.957,3.651 L -0.17,3.328 C -1.014,3.073 -2.059,3.065 -2.801,3.978 -3.633,5 -3.375,6.51 -2.105,7.541 -1.381,8.132 -0.422,8.435 0.504,8.329 L 0.508,7.028 C -0.156,7.037 -0.721,6.888 -1.236,6.47 -1.787,6.024 -1.937,5.491 -1.602,5.077 -1.24,4.63 -0.662,4.833 0.041,5.054 L 1.143,5.371 C 2.156,5.679 3.045,5.601 3.777,4.696 4.611,3.674 4.463,2.112 3.018,0.94 2.184,0.26 1.078,-0.091 0,0" style="fill:#1f4899;fill-opacity:1;fill-rule:nonzero;stroke:none" id="path448" inkscape:connector-curvature="0"/></g><g id="g450" transform="matrix(1.0666666,0,0,1.0666666,-111.31421,306.53881)"><path d="M 0,0 -1.891,-1.25 -2.627,-0.131 2.512,3.265 3.248,2.147 1.342,0.89 5.043,-4.711 3.701,-5.601 Z" style="fill:#1f4899;fill-opacity:1;fill-rule:nonzero;stroke:none" id="path452" inkscape:connector-curvature="0"/></g><g id="g454" transform="matrix(1.0666666,0,0,1.0666666,-106.30589,311.32526)"><path d="M 0,0 1.404,0.783 5.32,-6.254 3.912,-7.035 Z" style="fill:#1f4899;fill-opacity:1;fill-rule:nonzero;stroke:none" id="path456" inkscape:connector-curvature="0"/></g><g id="g458" transform="matrix(1.0666666,0,0,1.0666666,-99.682953,313.16067)"><path d="M 0,0 -2.057,-0.946 -2.615,0.271 2.979,2.843 3.539,1.627 1.463,0.671 4.27,-5.431 2.805,-6.103 Z" style="fill:#1f4899;fill-opacity:1;fill-rule:nonzero;stroke:none" id="path460" inkscape:connector-curvature="0"/></g><g id="g462" transform="matrix(1.0666666,0,0,1.0666666,-92.343434,312.76793)"><path d="M 0,0 -1.41,4.196 0.115,4.711 1.572,0.379 c 0.533,-1.588 1.262,-1.942 2.157,-1.639 0.906,0.305 1.306,1.034 0.773,2.622 L 3.045,5.695 4.51,6.187 5.92,1.987 C 6.773,-0.549 6.039,-1.953 4.172,-2.582 2.316,-3.205 0.854,-2.537 0,0" style="fill:#1f4899;fill-opacity:1;fill-rule:nonzero;stroke:none" id="path464" inkscape:connector-curvature="0"/></g><g id="g466" transform="matrix(1.0666666,0,0,1.0666666,-82.110047,319.25443)"><path d="M 0,0 -2.209,-0.486 -2.498,0.819 3.518,2.149 3.805,0.843 1.572,0.349 3.021,-6.207 1.449,-6.556 Z" style="fill:#1f4899;fill-opacity:1;fill-rule:nonzero;stroke:none" id="path468" inkscape:connector-curvature="0"/></g><g id="g470" transform="matrix(1.0666666,0,0,1.0666666,-75.585035,321.97422)"><path d="M 0,0 4.904,0.594 5.062,-0.732 1.758,-1.131 1.982,-2.979 4.789,-2.64 4.953,-3.979 2.145,-4.318 2.402,-6.459 5.824,-6.043 5.988,-7.386 0.965,-7.99 Z" style="fill:#1f4899;fill-opacity:1;fill-rule:nonzero;stroke:none" id="path472" inkscape:connector-curvature="0"/></g><g id="g474" transform="matrix(1.0666666,0,0,1.0666666,-57.637089,318.57113)"><path d="M 0,0 C 0.053,1.729 -0.678,2.783 -1.875,2.819 -3.072,2.854 -3.865,1.843 -3.916,0.114 -3.965,-1.604 -3.236,-2.724 -2.041,-2.763 -0.846,-2.797 -0.047,-1.718 0,0 M -5.557,0.164 C -5.48,2.783 -3.965,4.265 -1.834,4.198 0.297,4.138 1.719,2.56 1.643,-0.05 1.564,-2.659 0.051,-4.214 -2.082,-4.151 c -2.129,0.063 -3.553,1.707 -3.475,4.315" style="fill:#1f4899;fill-opacity:1;fill-rule:nonzero;stroke:none" id="path476" inkscape:connector-curvature="0"/></g><g id="g478" transform="matrix(1.0666666,0,0,1.0666666,-52.595489,322.43875)"><path d="M 0,0 4.918,-0.66 4.74,-1.986 1.418,-1.539 1.139,-3.621 3.975,-4.002 3.795,-5.338 0.959,-4.959 0.523,-8.194 -1.072,-7.979 Z" style="fill:#1f4899;fill-opacity:1;fill-rule:nonzero;stroke:none" id="path480" inkscape:connector-curvature="0"/></g><g id="g482" transform="matrix(1.0666666,0,0,1.0666666,-43.155917,313.24291)"><path d="M 0,0 1.189,0.819 C 1.604,0.148 2.238,-0.402 2.918,-0.596 3.727,-0.82 4.252,-0.598 4.404,-0.052 4.566,0.524 4.145,0.836 3.537,1.323 L 2.625,2.056 C 1.932,2.602 1.32,3.448 1.639,4.582 1.996,5.849 3.377,6.512 4.951,6.069 5.852,5.815 6.65,5.207 7.1,4.392 L 6.043,3.637 C 5.666,4.184 5.215,4.558 4.574,4.738 3.896,4.932 3.369,4.75 3.225,4.235 3.07,3.683 3.568,3.326 4.156,2.879 L 5.051,2.166 C 5.885,1.512 6.334,0.74 6.02,-0.379 5.666,-1.646 4.303,-2.43 2.51,-1.926 1.475,-1.635 0.551,-0.936 0,0" style="fill:#1f4899;fill-opacity:1;fill-rule:nonzero;stroke:none" id="path484" inkscape:connector-curvature="0"/></g><g id="g486" transform="matrix(1.0666666,0,0,1.0666666,-34.176717,313.8971)"><path d="M 0,0 C 0.977,2.471 3.131,3.293 5.027,2.547 5.977,2.174 6.559,1.418 6.846,0.722 L 5.682,0.082 C 5.451,0.592 5.119,1.027 4.553,1.25 3.418,1.697 2.184,1.061 1.551,-0.551 0.908,-2.181 1.293,-3.467 2.477,-3.932 3.115,-4.184 3.742,-4.078 4.316,-3.803 L 4.74,-5.045 C 3.84,-5.52 2.889,-5.59 1.916,-5.207 0.021,-4.463 -0.982,-2.5 0,0" style="fill:#1f4899;fill-opacity:1;fill-rule:nonzero;stroke:none" id="path488" inkscape:connector-curvature="0"/></g><g id="g490" transform="matrix(1.0666666,0,0,1.0666666,-23.953784,314.29923)"><path d="m 0,0 1.447,-0.707 -3.535,-7.232 -1.447,0.706 z" style="fill:#1f4899;fill-opacity:1;fill-rule:nonzero;stroke:none" id="path492" inkscape:connector-curvature="0"/></g><g id="g494" transform="matrix(1.0666666,0,0,1.0666666,-19.412131,312.00963)"><path d="M 0,0 4.262,-2.498 3.582,-3.653 0.713,-1.969 -0.23,-3.576 2.211,-5.008 1.529,-6.17 l -2.441,1.432 -1.09,-1.86 2.977,-1.744 -0.682,-1.164 -4.365,2.56 z" style="fill:#1f4899;fill-opacity:1;fill-rule:nonzero;stroke:none" id="path496" inkscape:connector-curvature="0"/></g><g id="g498" transform="matrix(1.0666666,0,0,1.0666666,-12.112185,307.5659)"><path d="M 0,0 1.322,-0.973 0.666,-5.812 0.281,-7.693 0.326,-7.724 c 0.426,0.726 0.965,1.657 1.504,2.39 l 1.902,2.586 1.227,-0.901 -4.772,-6.486 -1.314,0.967 0.68,4.85 0.367,1.88 -0.047,0.028 C -0.58,-3.154 -1.084,-4.041 -1.631,-4.785 l -1.916,-2.604 -1.226,0.905 z" style="fill:#1f4899;fill-opacity:1;fill-rule:nonzero;stroke:none" id="path500" inkscape:connector-curvature="0"/></g><g id="g502" transform="matrix(1.0666666,0,0,1.0666666,-7.2683455,298.43459)"><path d="M 0,0 C 1.791,1.956 4.104,1.948 5.602,0.572 6.355,-0.12 6.625,-1.033 6.643,-1.785 L 5.324,-1.969 C 5.295,-1.407 5.141,-0.882 4.691,-0.469 3.793,0.355 2.416,0.203 1.244,-1.07 0.062,-2.361 -0.045,-3.698 0.895,-4.559 1.398,-5.021 2.021,-5.148 2.658,-5.102 L 2.607,-6.412 C 1.594,-6.531 0.682,-6.254 -0.086,-5.549 -1.586,-4.174 -1.82,-1.98 0,0" style="fill:#1f4899;fill-opacity:1;fill-rule:nonzero;stroke:none" id="path504" inkscape:connector-curvature="0"/></g><g id="g506" transform="matrix(1.0666666,0,0,1.0666666,2.5190672,295.07214)"><path d="M 0,0 3.293,-3.678 2.297,-4.573 0.076,-2.09 -1.309,-3.332 0.576,-5.44 -0.43,-6.338 -2.314,-4.23 -3.918,-5.668 -1.621,-8.238 -2.625,-9.137 -6,-5.369 Z" style="fill:#1f4899;fill-opacity:1;fill-rule:nonzero;stroke:none" id="path508" inkscape:connector-curvature="0"/></g><g id="g510" transform="matrix(1.0666666,0,0,1.0666666,8.3274935,279.52633)"><path d="M 0,0 0.602,0.688 C 1.16,1.361 1.809,2.057 2.4,2.737 L 2.377,2.774 C 1.529,2.457 0.635,2.149 -0.193,1.883 L -1.061,1.594 Z M -0.848,-0.983 -2.297,1.19 -4.33,0.516 -5.236,1.873 2.896,4.193 3.945,2.616 -1.32,-4.006 -2.254,-2.602 Z" style="fill:#1f4899;fill-opacity:1;fill-rule:nonzero;stroke:none" id="path512" inkscape:connector-curvature="0"/></g><g id="g514" transform="matrix(1.0666666,0,0,1.0666666,15.421146,277.68046)"><path d="m 0,0 0.754,-1.461 -2.729,-4.052 -1.171,-1.514 0.023,-0.05 c 0.703,0.462 1.596,1.061 2.406,1.482 l 2.85,1.478 0.703,-1.354 -7.149,-3.705 -0.751,1.447 2.751,4.051 1.161,1.522 -0.028,0.049 c -0.736,-0.471 -1.578,-1.04 -2.4,-1.465 l -2.867,-1.491 -0.701,1.352 z" style="fill:#1f4899;fill-opacity:1;fill-rule:nonzero;stroke:none" id="path516" inkscape:connector-curvature="0"/></g><g id="g518" transform="matrix(1.0666666,0,0,1.0666666,14.000347,263.83876)"><path d="m 0,0 c 0.537,-1.402 1.625,-1.986 3.455,-1.287 1.84,0.703 2.191,1.842 1.658,3.246 L 4.934,2.426 -0.18,0.469 Z M 5.557,4.389 6.346,2.328 C 7.227,0.029 6.584,-1.852 4.043,-2.822 1.51,-3.793 -0.295,-2.85 -1.143,-0.635 L -1.965,1.51 Z" style="fill:#1f4899;fill-opacity:1;fill-rule:nonzero;stroke:none" id="path520" inkscape:connector-curvature="0"/></g><g id="g522" transform="matrix(1.0666666,0,0,1.0666666,23.250373,253.49294)"><path d="m 0,0 -0.488,2.211 1.31,0.285 1.321,-6.014 -1.309,-0.287 -0.49,2.233 -6.557,-1.444 -0.346,1.573 z" style="fill:#1f4899;fill-opacity:1;fill-rule:nonzero;stroke:none" id="path524" inkscape:connector-curvature="0"/></g><g id="g526" transform="matrix(1.0666666,0,0,1.0666666,25.967066,246.9659)"><path d="m 0,0 0.59,-4.908 -1.33,-0.158 -0.395,3.306 -1.847,-0.222 0.336,-2.809 -1.342,-0.16 -0.336,2.81 -2.141,-0.257 0.412,-3.426 -1.34,-0.16 -0.601,5.025 z" style="fill:#1f4899;fill-opacity:1;fill-rule:nonzero;stroke:none" id="path528" inkscape:connector-curvature="0"/></g><g id="g530" transform="matrix(1.0666666,0,0,1.0666666,22.475333,238.993)"><path d="M 0,0 C 2.652,0.062 4.246,-1.611 4.299,-3.641 4.322,-4.664 3.852,-5.494 3.32,-6.027 l -1.043,0.826 c 0.383,0.41 0.655,0.883 0.639,1.494 -0.027,1.217 -1.094,2.105 -2.822,2.064 -1.752,-0.039 -2.787,-0.892 -2.756,-2.166 0.014,-0.685 0.353,-1.218 0.832,-1.646 l -0.981,-0.871 c -0.787,0.644 -1.222,1.494 -1.246,2.539 C -4.105,-1.754 -2.686,-0.066 0,0" style="fill:#1f4899;fill-opacity:1;fill-rule:nonzero;stroke:none" id="path532" inkscape:connector-curvature="0"/></g><g id="g534" transform="matrix(1.0666666,0,0,1.0666666,26.871172,229.55342)"><path d="m 0,0 -0.133,-1.605 -3.158,0.263 -0.254,-3.035 3.156,-0.266 -0.132,-1.595 -8.026,0.672 0.131,1.595 3.471,-0.291 0.256,3.039 -3.471,0.287 0.137,1.608 z" style="fill:#1f4899;fill-opacity:1;fill-rule:nonzero;stroke:none" id="path536" inkscape:connector-curvature="0"/></g><g id="g538" transform="matrix(1.0666666,0,0,1.0666666,25.798319,219.2826)"><path d="m 0,0 -0.326,-1.609 -4.662,-1.45 -1.867,-0.445 -0.01,-0.053 c 0.838,-0.08 1.908,-0.173 2.804,-0.355 l 3.145,-0.631 -0.301,-1.496 -7.892,1.59 0.322,1.601 4.683,1.43 1.858,0.461 0.012,0.053 c -0.87,0.095 -1.887,0.179 -2.793,0.363 l -3.166,0.637 0.298,1.492 z" style="fill:#1f4899;fill-opacity:1;fill-rule:nonzero;stroke:none" id="path540" inkscape:connector-curvature="0"/></g><g id="g542" transform="matrix(1.0666666,0,0,1.0666666,17.79832,205.32633)"><path d="M 0,0 C 1.646,-0.539 2.865,-0.137 3.238,0.998 3.609,2.139 2.865,3.184 1.219,3.723 -0.414,4.258 -1.695,3.877 -2.068,2.738 -2.441,1.6 -1.633,0.533 0,0 M 1.732,5.285 C 4.225,4.469 5.213,2.6 4.551,0.572 3.887,-1.457 1.973,-2.375 -0.51,-1.563 -2.992,-0.75 -4.057,1.146 -3.393,3.174 -2.727,5.199 -0.75,6.098 1.732,5.285" style="fill:#1f4899;fill-opacity:1;fill-rule:nonzero;stroke:none" id="path544" inkscape:connector-curvature="0"/></g><g id="g546" transform="matrix(1.0666666,0,0,1.0666666,20.079493,199.39716)"><path d="M 0,0 -0.658,-1.473 -6.777,1.268 -8.109,-1.711 -9.342,-1.16 -7.35,3.289 Z" style="fill:#1f4899;fill-opacity:1;fill-rule:nonzero;stroke:none" id="path548" inkscape:connector-curvature="0"/></g><g id="g550" transform="matrix(1.0666666,0,0,1.0666666,10.275333,189.53252)"><path d="M 0,0 C 1.498,-0.863 2.775,-0.719 3.373,0.316 3.971,1.355 3.457,2.527 1.957,3.393 0.469,4.254 -0.865,4.145 -1.461,3.104 -2.061,2.072 -1.488,0.861 0,0 M 2.779,4.816 C 5.049,3.508 5.637,1.473 4.57,-0.373 3.504,-2.221 1.441,-2.729 -0.82,-1.424 c -2.262,1.305 -2.914,3.379 -1.848,5.227 1.064,1.845 3.184,2.322 5.447,1.013" style="fill:#1f4899;fill-opacity:1;fill-rule:nonzero;stroke:none" id="path552" inkscape:connector-curvature="0"/></g><g id="g554" transform="matrix(1.0666666,0,0,1.0666666,8.0191202,186.07833)"><path d="M 0,0 C 2.131,-1.584 2.357,-3.891 1.08,-5.611 0.385,-6.545 -0.496,-6.893 -1.236,-6.996 l -0.309,1.301 c 0.539,0.086 1.047,0.277 1.481,0.865 0.798,1.072 0.515,2.445 -0.87,3.476 -1.408,1.045 -2.736,1.028 -3.675,-0.24 -0.235,-0.312 -0.379,-0.691 -0.36,-0.994 l 1.276,-0.945 0.849,1.142 1.057,-0.783 -1.703,-2.297 -2.92,2.164 c -0.104,0.756 0.111,1.774 0.779,2.672 C -4.32,1.131 -2.158,1.6 0,0" style="fill:#1f4899;fill-opacity:1;fill-rule:nonzero;stroke:none" id="path556" inkscape:connector-curvature="0"/></g><g id="g558" transform="matrix(1.0666666,0,0,1.0666666,0.17954738,177.95961)"><path d="M 0,0 5.397,-1.654 4.248,-2.918 2.26,-2.191 C 1.662,-1.957 1.098,-1.736 0.471,-1.504 L 0.441,-1.533 C 0.729,-2.139 0.986,-2.693 1.275,-3.27 L 2.18,-5.184 1.051,-6.42 l -2.135,5.231 -2.18,1.988 1.086,1.187 z" style="fill:#1f4899;fill-opacity:1;fill-rule:nonzero;stroke:none" id="path560" inkscape:connector-curvature="0"/></g><g id="g562" transform="matrix(1.0666666,0,0,1.0666666,-98.05586,158.59716)"><path d="M 0,0 -0.576,-1.043 -1.744,-0.398 -3.326,-3.262 -4.59,-2.564 -0.945,4.033 0.318,3.334 -1.168,0.645 Z M -6.609,1.062 C -6.055,0.756 -5.51,0.793 -5.238,1.281 -4.977,1.758 -5.234,2.24 -5.789,2.547 -6.354,2.859 -6.889,2.816 -7.154,2.34 -7.426,1.85 -7.174,1.375 -6.609,1.062 M -2.492,2.387 -7.68,5.254 -7.137,6.24 -5.186,5.16 -4.664,6.098 -3.393,5.396 -3.91,4.457 -1.936,3.371 Z M -7.137,0.104 C -8.4,0.805 -8.922,1.99 -8.359,3.006 c 0.548,0.996 1.836,1.195 3.097,0.498 1.266,-0.697 1.78,-1.895 1.229,-2.891 -0.559,-1.011 -1.84,-1.205 -3.104,-0.509 m -1.199,-1.985 4.74,-2.619 -0.554,-1.004 -6.004,3.315 1.412,2.556 1.262,-0.697 z" style="fill:#1f4899;fill-opacity:1;fill-rule:nonzero;stroke:none" id="path564" inkscape:connector-curvature="0"/></g><g id="g566" transform="matrix(1.0666666,0,0,1.0666666,-89.743434,153.09711)"><path d="m 0,0 -0.473,-1.342 2.643,-0.926 -1.188,-3.394 -1.371,0.482 0.813,2.323 -5.377,1.886 0.375,1.067 2.744,-0.959 0.471,1.343 -3.612,1.264 0.379,1.082 6.049,-2.117 C 1.93,1.516 2.203,2.195 2.428,2.824 L -2.766,4.643 -2.385,5.738 4.148,3.447 3.883,2.684 C 3.635,1.973 3.354,1.18 2.814,0.232 l 1.2,-0.419 -0.379,-1.083 z" style="fill:#1f4899;fill-opacity:1;fill-rule:nonzero;stroke:none" id="path568" inkscape:connector-curvature="0"/></g><g id="g570" transform="matrix(1.0666666,0,0,1.0666666,-71.895435,148.745)"><path d="m 0,0 -1.334,0.23 -0.818,-4.744 -1.424,0.246 1.713,9.928 1.424,-0.248 -0.692,-3.998 1.336,-0.23 z m -5.32,0.607 c 0.468,1.373 0.685,2.432 0.838,3.317 L -8.189,4.562 -7.994,5.695 -2.887,4.814 -3.025,4.006 C -3.191,3.047 -3.398,1.838 -3.949,0.25 Z M -6.309,-0.5 c 0.965,-0.133 1.946,-0.234 2.87,-0.283 l -0.102,-1.039 c -2.074,0.002 -4.303,0.343 -6.027,0.631 l 0.07,1.185 c 0.549,-0.094 1.152,-0.199 1.779,-0.295 l 0.506,2.93 1.4,-0.24 z" style="fill:#1f4899;fill-opacity:1;fill-rule:nonzero;stroke:none" id="path572" inkscape:connector-curvature="0"/></g><g id="g574" transform="matrix(1.0666666,0,0,1.0666666,-57.637089,149.92004)"><path d="M 0,0 -1.33,0.002 -1.336,-2.523 -2.779,-2.521 -2.77,3.791 -1.324,3.787 -1.33,1.195 0.004,1.193 Z m -6.299,-1.16 c 0.647,0 1.094,0.252 1.094,0.767 0.002,0.502 -0.445,0.754 -1.092,0.756 -0.654,0 -1.092,-0.25 -1.094,-0.754 0,-0.513 0.438,-0.765 1.092,-0.769 m -1.754,-1.766 6.717,-0.013 -0.006,-3.356 -1.443,0.004 0.002,2.197 -5.27,0.008 z m 1.754,0.674 c -1.445,0.004 -2.471,0.762 -2.471,1.865 0.004,1.092 1.034,1.844 2.477,1.842 1.455,-0.002 2.471,-0.76 2.467,-1.851 0,-1.104 -1.02,-1.858 -2.473,-1.856 m 2.971,4.02 -5.928,0.009 0,1.139 2.233,-0.004 0,0.94 L -5.568,3.848 -5.57,2.91 -3.328,2.904 Z" style="fill:#1f4899;fill-opacity:1;fill-rule:nonzero;stroke:none" id="path576" inkscape:connector-curvature="0"/></g><g id="g578" transform="matrix(1.0666666,0,0,1.0666666,-45.268343,155.78255)"><path d="m 0,0 1.691,-9.936 -1.433,-0.24 -1.692,9.93 z M -2.775,-1.539 C -2.26,-4.578 -2.863,-7.234 -6.1,-9.541 l -0.937,0.998 c 2.33,1.65 3.166,3.387 2.996,5.627 l -3.311,-0.566 -0.195,1.13 z" style="fill:#1f4899;fill-opacity:1;fill-rule:nonzero;stroke:none" id="path580" inkscape:connector-curvature="0"/></g><g id="g582" transform="matrix(1.0666666,0,0,1.0666666,-33.835064,153.56175)"><path d="m 0,0 0.215,-0.607 2.576,0.906 0.865,-2.471 -5.201,-1.822 0.19,-0.537 5.449,1.912 0.359,-1.024 -6.803,-2.384 -0.877,2.498 5.213,1.828 -0.179,0.515 -5.225,-1.832 -0.353,1.014 2.621,0.918 -0.211,0.609 L -4.967,-1.74 -5.342,-0.668 3.246,2.344 3.621,1.27 Z M 2.23,2.43 C 0.529,2.027 -0.863,2.234 -1.768,2.896 -2.061,1.816 -3.033,0.781 -4.611,0.027 l -0.803,0.869 c 2.062,0.958 2.762,2.278 2.437,3.198 L -3.037,4.268 -1.635,4.76 -1.57,4.582 C -1.252,3.666 0.117,3.066 2.326,3.611 Z" style="fill:#1f4899;fill-opacity:1;fill-rule:nonzero;stroke:none" id="path584" inkscape:connector-curvature="0"/></g><g id="g586" transform="matrix(1.0666666,0,0,1.0666666,-19.089251,159.52634)"><path d="m 0,0 -2.807,5.137 1.268,0.691 3.66,-6.697 -1.266,-0.695 -0.382,0.701 -1.662,-0.908 -0.471,0.867 z m -6.145,0.871 c 0.235,-0.434 0.768,-0.43 1.364,-0.105 0.584,0.32 0.877,0.769 0.64,1.199 C -4.375,2.396 -4.916,2.4 -5.5,2.082 -6.094,1.758 -6.383,1.303 -6.145,0.871 m 8.993,-2.617 0.55,-1.006 -6.556,-3.584 -1.436,2.629 1.229,0.674 -0.645,1.181 c -0.758,-0.462 -1.492,-0.875 -2.152,-1.24 l -0.715,0.92 c 1.607,0.891 3.748,2.082 5.481,3.34 L -0.82,0.314 c -0.621,-0.5 -1.291,-0.964 -1.975,-1.402 l 0.912,-1.674 -1.219,-0.664 0.661,-1.209 z M -7.346,0.215 c -0.513,0.939 0.047,2.082 1.342,2.789 1.285,0.701 2.551,0.557 3.065,-0.381 0.513,-0.941 -0.053,-2.072 -1.338,-2.777 -1.297,-0.709 -2.555,-0.573 -3.069,0.369" style="fill:#1f4899;fill-opacity:1;fill-rule:nonzero;stroke:none" id="path588" inkscape:connector-curvature="0"/></g><g id="g590" transform="matrix(1.0666666,0,0,1.0666666,-7.5621055,168.22425)"><path d="m 0,0 c 0,-0.814 -0.66,-1.475 -1.479,-1.475 -0.812,0 -1.474,0.661 -1.474,1.475 0,0.816 0.662,1.479 1.474,1.479 C -0.66,1.479 0,0.816 0,0" style="fill:#1f4899;fill-opacity:1;fill-rule:nonzero;stroke:none" id="path592" inkscape:connector-curvature="0"/></g><g id="g594" transform="matrix(1.0666666,0,0,1.0666666,-115.10589,168.22425)"><path d="m 0,0 c 0,-0.814 -0.66,-1.475 -1.477,-1.475 -0.816,0 -1.478,0.661 -1.478,1.475 0,0.816 0.662,1.479 1.478,1.479 C -0.66,1.479 0,0.816 0,0" style="fill:#1f4899;fill-opacity:1;fill-rule:nonzero;stroke:none" id="path596" inkscape:connector-curvature="0"/></g><g id="g598" transform="matrix(1.0666666,0,0,1.0666666,-79.720501,189.04719)"><path d="m 0,0 2.26,0 0,6.047 -1.959,0 0,1.574 c 1.144,0.215 1.887,0.5 2.631,0.955 l 1.871,0 0,-8.576 1.918,0 0,-2.059 -6.721,0 z" style="fill:#234f99;fill-opacity:1;fill-rule:nonzero;stroke:none" id="path600" inkscape:connector-curvature="0"/></g><g id="g602" transform="matrix(1.0666666,0,0,1.0666666,-65.178849,193.97423)"><path d="m 0,0 c -0.213,1.756 -0.887,2.258 -1.541,2.258 -0.674,0 -1.246,-0.473 -1.246,-1.699 0,-1.145 0.572,-1.559 1.287,-1.559 0.514,0 1.088,0.271 1.5,1 m -3.629,-4.088 c 0.356,-0.387 1.014,-0.728 1.627,-0.728 1.088,0 1.945,0.769 2.045,3.099 -0.512,-0.683 -1.414,-1.07 -2.031,-1.07 -1.785,0 -3.116,1.058 -3.116,3.346 0,2.257 1.602,3.603 3.502,3.603 2.016,0 3.975,-1.531 3.975,-5.391 0,-3.861 -2.027,-5.646 -4.201,-5.646 -1.43,0 -2.461,0.6 -3.131,1.271 z" style="fill:#234f99;fill-opacity:1;fill-rule:nonzero;stroke:none" id="path604" inkscape:connector-curvature="0"/></g><g id="g606" transform="matrix(1.0666666,0,0,1.0666666,-56.499596,195.93881)"><path d="m 0,0 -4.578,0 0,2.115 7.293,0 0,-1.541 C 0.254,-2.357 0,-4.359 -0.189,-8.521 l -2.559,0 C -2.545,-5.018 -2.004,-2.771 0,0" style="fill:#234f99;fill-opacity:1;fill-rule:nonzero;stroke:none" id="path608" inkscape:connector-curvature="0"/></g><g id="g610" transform="matrix(1.0666666,0,0,1.0666666,-51.912183,189.04719)"><path d="m 0,0 2.26,0 0,6.047 -1.961,0 0,1.574 c 1.144,0.215 1.887,0.5 2.633,0.955 l 1.871,0 0,-8.576 1.916,0 0,-2.059 -6.719,0 z" style="fill:#234f99;fill-opacity:1;fill-rule:nonzero;stroke:none" id="path612" inkscape:connector-curvature="0"/></g><g id="g614" transform="matrix(1.0666666,0,0,1.0666666,-62.232929,325.99918)"><path d="m 0,0 c -47.859,0 -86.795,-38.938 -86.795,-86.797 0,-47.859 38.936,-86.797 86.795,-86.797 47.859,0 86.795,38.938 86.795,86.797 C 86.795,-38.938 47.859,0 0,0 m 0,-174.414 c -48.313,0 -87.615,39.305 -87.615,87.617 0,48.313 39.302,87.616 87.615,87.616 48.311,0 87.615,-39.303 87.615,-87.616 0,-48.312 -39.304,-87.617 -87.615,-87.617" style="fill:#1f4899;fill-opacity:1;fill-rule:nonzero;stroke:none" id="path616" inkscape:connector-curvature="0"/></g></g></g></svg>