<?xml version="1.0" encoding="UTF-8" standalone="no"?>
<!-- Created with Inkscape (http://www.inkscape.org/) -->

<svg
   version="1.1"
   id="svg1"
   width="143.45734"
   height="165.73344"
   viewBox="0 0 143.45734 165.73344"
   xmlns="http://www.w3.org/2000/svg"
   xmlns:svg="http://www.w3.org/2000/svg">
  <defs
     id="defs1">
    <clipPath
       clipPathUnits="userSpaceOnUse"
       id="clipPath43">
      <path
         d="M 0,0 H 5040 V 3274.14 H 0 Z"
         transform="translate(0,-2.5e-5)"
         id="path43" />
    </clipPath>
    <clipPath
       clipPathUnits="userSpaceOnUse"
       id="clipPath45">
      <path
         d="M 0,0 H 5040 V 3274.14 H 0 Z"
         transform="translate(0,-2.5e-5)"
         id="path45" />
    </clipPath>
    <clipPath
       clipPathUnits="userSpaceOnUse"
       id="clipPath47">
      <path
         d="M 0,0 H 5040 V 3274.14 H 0 Z"
         transform="translate(0,-2.5e-5)"
         id="path47" />
    </clipPath>
    <clipPath
       clipPathUnits="userSpaceOnUse"
       id="clipPath49">
      <path
         d="M 0,0 H 5040 V 3274.14 H 0 Z"
         transform="translate(0,-2.5e-5)"
         id="path49" />
    </clipPath>
    <clipPath
       clipPathUnits="userSpaceOnUse"
       id="clipPath51">
      <path
         d="M 0,0 H 5040 V 3274.14 H 0 Z"
         transform="translate(0,-2.5e-5)"
         id="path51" />
    </clipPath>
    <clipPath
       clipPathUnits="userSpaceOnUse"
       id="clipPath53">
      <path
         d="M 0,0 H 5040 V 3274.14 H 0 Z"
         transform="translate(0,-2.5e-5)"
         id="path53" />
    </clipPath>
    <clipPath
       clipPathUnits="userSpaceOnUse"
       id="clipPath55">
      <path
         d="M 0,0 H 5040 V 3274.14 H 0 Z"
         transform="translate(0,-2.5e-5)"
         id="path55" />
    </clipPath>
    <clipPath
       clipPathUnits="userSpaceOnUse"
       id="clipPath57">
      <path
         d="M 0,0 H 5040 V 3274.14 H 0 Z"
         transform="translate(0,-2.5e-5)"
         id="path57" />
    </clipPath>
    <clipPath
       clipPathUnits="userSpaceOnUse"
       id="clipPath59">
      <path
         d="M 0,0 H 5040 V 3274.14 H 0 Z"
         transform="translate(0,-2.5e-5)"
         id="path59" />
    </clipPath>
    <clipPath
       clipPathUnits="userSpaceOnUse"
       id="clipPath61">
      <path
         d="M 0,0 H 5040 V 3274.14 H 0 Z"
         transform="translate(0,-2.5e-5)"
         id="path61" />
    </clipPath>
    <clipPath
       clipPathUnits="userSpaceOnUse"
       id="clipPath63">
      <path
         d="M 0,0 H 5040 V 3274.14 H 0 Z"
         transform="translate(0,-2.5e-5)"
         id="path63" />
    </clipPath>
    <clipPath
       clipPathUnits="userSpaceOnUse"
       id="clipPath65">
      <path
         d="M 0,0 H 5040 V 3274.14 H 0 Z"
         transform="translate(0,-2.5e-5)"
         id="path65" />
    </clipPath>
    <clipPath
       clipPathUnits="userSpaceOnUse"
       id="clipPath67">
      <path
         d="M 0,0 H 5040 V 3274.14 H 0 Z"
         transform="translate(0,-2.5e-5)"
         id="path67" />
    </clipPath>
    <clipPath
       clipPathUnits="userSpaceOnUse"
       id="clipPath69">
      <path
         d="M 0,0 H 5040 V 3274.14 H 0 Z"
         transform="translate(0,-2.5e-5)"
         id="path69" />
    </clipPath>
    <clipPath
       clipPathUnits="userSpaceOnUse"
       id="clipPath71">
      <path
         d="M 0,0 H 5040 V 3274.14 H 0 Z"
         transform="translate(0,-2.5e-5)"
         id="path71" />
    </clipPath>
    <clipPath
       clipPathUnits="userSpaceOnUse"
       id="clipPath73">
      <path
         d="M 0,0 H 5040 V 3274.14 H 0 Z"
         transform="translate(0,-2.5e-5)"
         id="path73" />
    </clipPath>
    <clipPath
       clipPathUnits="userSpaceOnUse"
       id="clipPath75">
      <path
         d="M 0,0 H 5040 V 3274.14 H 0 Z"
         transform="translate(0,-2.5e-5)"
         id="path75" />
    </clipPath>
    <clipPath
       clipPathUnits="userSpaceOnUse"
       id="clipPath77">
      <path
         d="M 0,0 H 5040 V 3274.14 H 0 Z"
         transform="translate(0,-2.5e-5)"
         id="path77" />
    </clipPath>
    <clipPath
       clipPathUnits="userSpaceOnUse"
       id="clipPath79">
      <path
         d="M 0,0 H 5040 V 3274.14 H 0 Z"
         transform="translate(0,-2.5e-5)"
         id="path79" />
    </clipPath>
    <clipPath
       clipPathUnits="userSpaceOnUse"
       id="clipPath81">
      <path
         d="M 0,0 H 5040 V 3274.14 H 0 Z"
         transform="translate(0,-2.5e-5)"
         id="path81" />
    </clipPath>
    <clipPath
       clipPathUnits="userSpaceOnUse"
       id="clipPath83">
      <path
         d="M 0,0 H 5040 V 3274.14 H 0 Z"
         transform="translate(0,-2.5e-5)"
         id="path83" />
    </clipPath>
    <clipPath
       clipPathUnits="userSpaceOnUse"
       id="clipPath85">
      <path
         d="M 0,0 H 5040 V 3274.14 H 0 Z"
         transform="translate(0,-2.5e-5)"
         id="path85" />
    </clipPath>
    <clipPath
       clipPathUnits="userSpaceOnUse"
       id="clipPath87">
      <path
         d="M 0,0 H 5040 V 3274.14 H 0 Z"
         transform="translate(0,-2.5e-5)"
         id="path87" />
    </clipPath>
    <clipPath
       clipPathUnits="userSpaceOnUse"
       id="clipPath89">
      <path
         d="M 0,0 H 5040 V 3274.14 H 0 Z"
         transform="translate(0,-2.5e-5)"
         id="path89" />
    </clipPath>
    <clipPath
       clipPathUnits="userSpaceOnUse"
       id="clipPath91">
      <path
         d="M 0,0 H 5040 V 3274.14 H 0 Z"
         transform="translate(0,-2.5e-5)"
         id="path91" />
    </clipPath>
  </defs>
  <g
     id="g1"
     transform="translate(-263.832,-190.77068)">
    <path
       id="path42"
       d="m 2516.99,606.219 -12.79,5.929 c -142.02,65.731 -256.62,161.192 -331.48,276.082 -179.52,275.45 -185.43,559.98 -191.7,861.19 -0.5,22.84 -0.98,45.71 -1.54,68.66 l -0.74,31.14 h 1075.93 l -0.75,-31.15 c -0.57,-23.07 -1.07,-46.09 -1.52,-69.08 -6.32,-301.04 -12.28,-585.45 -191.75,-860.76 -74.68,-114.691 -189.1,-210.14 -330.86,-276.039 l -12.8,-5.972"
       style="fill:#ffffff;fill-opacity:1;fill-rule:nonzero;stroke:none"
       transform="matrix(0.13333333,0,0,-0.13333333,0,437.33333)"
       clip-path="url(#clipPath43)" />
    <path
       id="path44"
       d="m 2514.53,1478.32 -421.57,-331.87 c -67.73,209.86 -65.86,429.26 -71.3,652.68 h 983.52 c -5.44,-223.97 -2.91,-442.49 -71.14,-652.82 l -419.51,332.01"
       style="fill:#fcce28;fill-opacity:1;fill-rule:nonzero;stroke:none"
       transform="matrix(0.13333333,0,0,-0.13333333,0,437.33333)"
       clip-path="url(#clipPath45)" />
    <path
       id="path46"
       d="m 2855.9,967.371 c -10.39,-18.461 -21.51,-36.82 -33.43,-55.141 -74.97,-115.101 -186.34,-200.269 -308.81,-257.21 -122.95,56.941 -234.28,142.109 -309.3,257.21 -11.69,17.891 -32.72,53.852 -32.72,53.852 l 342.89,273.648 341.37,-272.359"
       style="fill:#fcce28;fill-opacity:1;fill-rule:nonzero;stroke:none"
       transform="matrix(0.13333333,0,0,-0.13333333,0,437.33333)"
       clip-path="url(#clipPath47)" />
    <path
       id="path48"
       d="m 2225.93,1630.65 c -49.8,10.58 -94.13,47.62 -83.44,94.61 0.09,0.45 -1.91,12.14 -6.22,13.75 -0.33,0.14 -1.04,1.47 -1.78,1.65 -1.89,0.5 -3.47,1.33 -5.06,2.48 -0.57,0.41 -2.89,1.2 -2.89,2.03 -0.9,-1.95 -0.71,-3.73 -2.03,-5.43 -0.47,-0.63 -1.18,-1.61 -1.89,-1.99 -0.9,-0.47 -0.97,-1.3 -1.66,-1.91 -3.73,-3.76 -1.75,-9.43 -1.16,-13.74 0.17,-1.09 0.62,-2.41 -0.71,-2.66 -1.58,-0.28 -0.31,0.43 -2.15,1.57 -0.43,0.27 -1.07,0.97 -1.54,1.2 -0.78,0.36 -3.88,0.79 -4.4,1.54 -0.57,0.82 -0.33,1.09 -1.06,1.76 -1.75,1.54 -1.89,4.63 -3.15,7.81 -0.24,0.57 -0.73,3.35 -0.73,3.96 0,3.2 -8.14,8.3 -4.97,5.68 1.06,-0.9 -0.19,1.29 -4.52,2.37 -2.76,0.69 -5.95,0.54 -9.03,0.15 -0.64,-0.09 -1.23,-0.63 -1.7,-0.96 -3.14,-2.46 -6.08,-5.38 -10.2,-5.56 0.69,0.43 1.04,-0.39 1.35,-0.76 1.97,-2.53 0.55,-5.65 1.71,-8.44 1.16,-2.73 3.15,-4.83 5.48,-6.7 2.28,-1.78 6.23,0.56 7.95,-2.53 0,0.1 3.73,-0.87 0.08,-4.52 -6.7,-6.76 -14.15,-1.29 -19.69,-13.83 8.4,3.62 9.33,-9.18 12.9,-9.66 16.05,-2.19 28.28,-5.02 37.08,-21.3 5.4,-9.95 -9.63,-10.42 3.95,-12.74 6.91,-1.19 11.52,-4.66 15.02,-9.55 3.65,-5.14 4.16,-12.03 8.07,-16.83 2.86,-3.43 3.93,-4.11 7.36,-6.98 1.56,-1.31 6.48,-2.58 8.35,-3.05 1.84,-0.5 2.96,-1.42 4.71,-2.07 1.9,-0.68 3.85,-1.34 5.44,-2.63 1.35,-1.12 4.76,-2.29 5.54,-3.85 1.39,-2.71 0.25,-5.51 1.75,-8.24 0.44,-0.76 2.55,-0.1 3.45,-0.39 0.82,-0.3 2.72,-0.39 3.24,-0.3 3.27,0.75 4.05,0.96 6.48,1.25 3.72,0.43 3.29,-0.74 8.1,-0.5 1.01,0 1.41,-0.75 2.81,-0.75 0.93,0 2.53,-0.99 2.81,-0.15 1.45,4.57 3.84,8.96 6.53,13.42 2.68,4.45 2.46,4.88 5.87,9.53 -0.4,-0.13 4.38,3.22 3.95,3.26"
       style="fill:#c41b31;fill-opacity:1;fill-rule:nonzero;stroke:none"
       transform="matrix(0.13333333,0,0,-0.13333333,0,437.33333)"
       clip-path="url(#clipPath49)" />
    <path
       id="path50"
       d="m 2101.66,1624.87 c 14.59,-7.85 12.61,-27.27 25.76,-33.54 23.4,-11.13 51.31,-18.77 76.18,-6.56 -5.53,-17.3 0.59,-31.78 -1.82,-33.73 -7.81,-6.27 -31.57,1.19 -46.78,7.23 -10.47,4.16 -18.97,-11.41 -30.51,-10.04 0.56,1.34 1.89,5.35 1.11,7.81 -1.82,5.62 -3.29,7.27 -12.64,6.17 -6.05,-0.66 -3.54,-5.64 -12.58,-10.1 -3.57,2.13 -11.22,4.52 -12.34,-2.26 -0.52,-3.19 -6.88,11.01 -5.6,13.38 5.91,10.62 7.12,13.1 6.69,15.41 -0.69,3.49 -13.51,8.22 -15.19,5.27 -3.97,-6.97 -15.76,22.58 19,20.68 -9.35,6 -8.28,7.05 -6.08,14.18 0.26,0.98 -3.24,4.69 -5.63,2.13 -0.78,2.76 1.08,5.76 3.26,6.02 5.71,0.8 11.3,1.12 17.17,-2.05"
       style="fill:#c41b31;fill-opacity:1;fill-rule:nonzero;stroke:none"
       transform="matrix(0.13333333,0,0,-0.13333333,0,437.33333)"
       clip-path="url(#clipPath51)" />
    <path
       id="path52"
       d="m 2170.81,1696.47 c 21.07,-4.85 52.62,22.38 70.93,-9.7 -13.52,4.9 -53.5,-16.5 -70.93,9.7"
       style="fill:#c41b31;fill-opacity:1;fill-rule:nonzero;stroke:none"
       transform="matrix(0.13333333,0,0,-0.13333333,0,437.33333)"
       clip-path="url(#clipPath53)" />
    <path
       id="path54"
       d="m 2347.21,1649.82 c -0.43,-27.49 -28.89,-57.16 -5.8,-83.33 -9.45,0.15 -20.63,3.42 -27.19,8.73 -3.66,2.99 -2.86,-13.07 -2.36,-16.39 0.43,-2.81 -17.53,16.94 -24.27,12.11 -19.05,-13.69 -27.31,-19.35 -55.63,-20.39 -7.85,-0.27 -11.94,-6.62 -14.19,-13.48 -6.41,13.11 -1.66,42.93 2.03,56.18 10.03,36.34 46.52,47.13 75.81,64.49 21,12.51 30,36.94 28.93,60.76 14.9,-18.63 23,-45.3 22.67,-68.68"
       style="fill:#c41b31;fill-opacity:1;fill-rule:nonzero;stroke:none"
       transform="matrix(0.13333333,0,0,-0.13333333,0,437.33333)"
       clip-path="url(#clipPath55)" />
    <path
       id="path56"
       d="m 2213.2,1340.36 c 3.56,-0.8 0.9,-3.77 -0.49,-4.67 -2.92,-1.92 -4.93,-4.3 -6.77,-7.21 -1.4,-2.17 -2.39,-4.49 -1.85,-7.17 0.36,-1.97 1.03,-3.71 1.76,-5.49 0.47,-1.11 1.48,-1.73 2.31,-2.63 0.36,-0.35 1.63,-1.99 1.66,-2.11 -0.78,2.77 3.12,5.56 4.05,5.04 18.12,-10.55 19.19,10.8 30.05,18.02 4.61,3.11 15.04,-0.46 12.34,-9.9 10.84,5.76 14.03,20.35 22.48,29.48 18.64,20.23 44.79,33.69 69.57,44.64 -8.96,9.53 -22.17,17.52 -28.89,28.44 -3.31,5.39 -7.25,16 0.08,14.04 30.49,-7.96 47.6,10.65 50.98,34.67 45.16,-5.84 56.92,36.86 63.01,69.12 2.96,15.67 11.51,17.01 2.14,43.69 -3.87,11.16 20.04,14.83 15.97,34.09 -1.13,5.31 -7.7,10.67 -11.59,11.3 3.69,-10.39 -13.69,-13 -15.59,-17.24 -2.94,-6.66 -7.23,-11.97 -7.81,-18.97 -14.71,20.36 -2.78,44.89 11.01,63.96 20.17,27.79 61.98,13.19 79.58,-4.73 0.31,8.99 -6.64,20.43 -12.4,25.94 16.47,2.1 34.33,-7.92 56.78,3.97 12.97,6.9 26.05,12.79 32.13,28.1 -27.56,-3.78 -64.92,17.44 -89.74,21.76 -46.29,8.02 -77.36,-23.55 -93.94,-61.21 -16.49,-37.61 -5.91,-65.7 11.99,-93.8 4.5,-7.09 -15.9,-2.42 -23.93,-6.6 -7.84,-4.05 -11.03,-13.71 -9.25,-22.25 9.86,10.59 36.02,4.06 38.39,-14.08 3.22,-24.49 -21.46,-60.12 -45.31,-49.42 -25.52,11.45 -39.98,38.36 -48.44,68.66 -21.82,-18.79 -62.15,-3.26 -80.89,-21.62 -17.81,-17.45 27.77,-29.28 45.52,-37.5 6.53,-3.07 13.08,-9.75 11.99,-18.01 -27.8,16.35 -61.27,-2.19 -59.64,-31.9 1.25,-22.18 28.41,-35.99 51.05,-37.87 9.42,-0.76 15.09,-11.27 3.63,-18.43 -20.09,-12.56 -42.49,-26.57 -64.14,-3.85 -3.63,3.79 -16.59,1.4 -19.16,-5.49 -1.26,-3.34 -1.66,-8.5 -1.15,-11.91 1.17,2.07 2.56,5 4.39,4.76 2.13,-0.29 4.72,-2.54 4.44,-4.12 -1.86,-11.13 -16.49,-3.93 -21.03,-12.58 -0.09,-0.19 -0.34,-0.35 -0.45,-0.56 -0.29,-0.73 -0.67,-1.33 -0.99,-1.98 -2.96,-5.88 -7.03,-9.57 0.25,-14.16 -0.18,1.08 3.63,-4.69 3.56,-5.7 0.35,5.33 5.91,5.25 5.91,5.25 l 3.22,-0.37 3.21,-1.4"
       style="fill:#c41b31;fill-opacity:1;fill-rule:nonzero;stroke:none"
       transform="matrix(0.13333333,0,0,-0.13333333,0,437.33333)"
       clip-path="url(#clipPath57)" />
    <path
       id="path58"
       d="m 2119.09,1444.93 c -2.86,0.91 -5.84,-0.2 -8.68,-1.47 -1.82,-0.82 -4,0.04 -5.11,-1.82 -0.66,-1.09 -1.06,-2.32 -0.71,-3.61 0.19,-0.66 0.47,-1.93 1.04,-2.34 -3.81,0.31 -7.38,2.89 -10.29,5.51 -0.96,0.86 -1.53,1.83 -2.45,2.73 -0.57,0.63 -0.5,1.74 -0.9,2.6 -0.4,0.88 -0.23,1.89 -0.26,2.81 -0.09,2.6 -0.14,5.33 1.04,7.73 0.53,1.12 1.09,2.25 1.88,3.23 0.64,0.8 1.26,1.42 1.97,2.11 1.94,1.85 4.11,3.3 6.69,4.06 3.77,1.13 7.86,0.8 11.46,-0.78 2.86,-1.23 6.27,-1.1 9.27,-1.92 1.6,-0.45 4.61,4.18 2.43,4.71 -9.48,2.33 -9.43,4.9 -12.98,14.47 -1.66,1.88 -3.84,-0.27 -4.76,-1.25 -0.05,18.38 21.77,19.59 30.9,12.31 13.5,-10.86 3.36,-32.11 19.94,-37.97 8.64,-3.09 17.79,-5.45 26.71,-1.66 16.04,6.82 0.05,22.93 5.2,36.56 10.48,27.48 33.65,28.93 61.25,2.42 -24.69,-8.18 -36.24,-40.86 -22.7,-62.38 -21.8,8.54 -49.24,-5.84 -64.54,-15.6 14.22,14.23 -5.78,25.74 -10.82,23.2 l -6.05,-4.22 c -2.91,-3.69 -3.13,-7.5 -6.72,-11.02 -2.01,-1.93 -3.15,-2.32 -5.77,-3 -3.63,-0.94 -5.87,-0.67 -9.09,1.46 -0.59,0.39 -2.53,-0.45 -2.91,-0.94 -1.75,-2.13 -0.04,-3.2 -0.09,-4 -0.36,0.29 -2.6,2.11 -2.94,2.36 -2.05,1.55 -4.42,2.89 -5.7,5 -1.27,2.13 -2.15,7.44 -0.71,10.39 1.45,2.86 4.33,3.75 6.27,5.75 1.82,1.81 -0.35,4.64 -2.55,4.98"
       style="fill:#c41b31;fill-opacity:1;fill-rule:nonzero;stroke:none"
       transform="matrix(0.13333333,0,0,-0.13333333,0,437.33333)"
       clip-path="url(#clipPath59)" />
    <path
       id="path60"
       d="m 2649.08,1687.64 c 1.96,-1.25 -0.14,-4.81 -2.39,-5.44 -2.65,-0.74 -6.37,0.38 -8.68,-0.52 -10.39,-3.81 -10.41,-29.38 -9,-26.42 1.57,3.26 9.23,1.14 14.17,0.17 8.03,-1.63 14.09,14.66 19.36,14.21 12.47,-1.14 24.13,-16.65 28.89,-26.85 0.85,-1.86 -5.23,-1.93 -5.64,-8.2 16.99,1.6 31.35,-9.45 43.63,-19.53 5.99,10.39 12.02,16.82 18.81,23.62 -25.55,24.86 -76.35,32.56 -68.51,77.87 1.03,5.82 -5.54,10.94 -8.45,13.79 -3.31,3.16 -10.84,3.35 -15.45,4.43 4.85,-10.03 -3.91,-11.02 -2.65,-26.95 0,-0.51 -1.44,-0.17 -1.99,0.05 -3.05,1.31 -5.65,3.2 -8.56,5.02 -2.63,1.63 -5.09,1.2 -8,0.77 -1.77,-0.24 -3.38,-1.05 -4.87,-2.12 -2.42,-1.73 -3.65,-3.94 -5.33,-6.4 -0.33,-0.43 -0.66,-0.98 -1.03,-1.37 -0.55,-0.56 -1.63,-2.27 -1.71,-3.14 1.33,0.14 5.44,-0.18 6.15,-1.27 1.18,-1.87 1.23,-4 2.63,-5.78 1.75,-2.21 3.22,-2.28 5.77,-3.34 3.98,-1.68 7.53,-2.44 11.88,-2.06"
       style="fill:#c41b31;fill-opacity:1;fill-rule:nonzero;stroke:none"
       transform="matrix(0.13333333,0,0,-0.13333333,0,437.33333)"
       clip-path="url(#clipPath61)" />
    <path
       id="path62"
       d="m 2715.16,1705.89 c 15.94,1.18 31.74,13.42 49.39,-7.29 -3.26,1.57 -7.05,2.11 -9.03,0.51 -19.52,-15.73 -43.23,-10.41 -55.72,9.07 5.08,0.81 11.24,-2.6 15.36,-2.29"
       style="fill:#c41b31;fill-opacity:1;fill-rule:nonzero;stroke:none"
       transform="matrix(0.13333333,0,0,-0.13333333,0,437.33333)"
       clip-path="url(#clipPath63)" />
    <path
       id="path64"
       d="m 2784.16,1648 c 26.22,13.25 52.72,23.93 63.51,56.43 2.1,6.34 6.95,-9.46 7.25,-10.35 13.87,-39.7 -13.77,-79.11 -8.08,-119.6 -9.23,5.64 -19.61,9.53 -29.74,9.84 -35.99,1.04 -44.53,-20.86 -46.56,-18.81 -9.87,9.98 -38.21,18.54 -36.16,16.64 -16.81,15.55 31.73,56.65 49.78,65.85"
       style="fill:#c41b31;fill-opacity:1;fill-rule:nonzero;stroke:none"
       transform="matrix(0.13333333,0,0,-0.13333333,0,437.33333)"
       clip-path="url(#clipPath65)" />
    <path
       id="path66"
       d="m 2712.51,1383.91 c 3.59,-5.55 -1.19,3.15 2.9,-6.29 18.97,7.95 38.61,17.03 59.6,8.52 -9.3,42.67 21.86,53.02 24.32,59.41 3.95,10.26 -16.87,30.63 -32.55,24.94 -20.02,-7.17 -11.69,-32.44 -15.45,-50.1 -2.08,-9.78 -14.2,-16.95 -24.25,-13.47 -16.56,5.7 -23.21,21.13 -27.3,38.46 -2.75,11.52 -25.17,12.91 -30.02,3.47 -13.77,-26.78 8.18,3.09 6.76,-17.22 -0.23,-3.46 -16.09,-0.86 -19.64,-12.91 -2.41,-8.23 5.38,-13.72 15.17,-16.61 1.8,-0.5 -1.89,4.09 0.57,5.1 1.77,0.68 8.96,-3.16 8.11,-3.65 -9.44,-5.76 -11.85,-19.14 5.02,-24.98 0.12,-0.02 -1.23,4.82 0.04,5.78 13.18,9.84 26.92,-0.78 26.95,-0.45"
       style="fill:#c41b31;fill-opacity:1;fill-rule:nonzero;stroke:none"
       transform="matrix(0.13333333,0,0,-0.13333333,0,437.33333)"
       clip-path="url(#clipPath67)" />
    <path
       id="path68"
       d="m 2427.14,1114.07 c 15.78,-7.29 20.87,0.54 41.62,3.9 2.91,0.47 14.57,-7.15 17.96,-11.01 -20.78,-3.28 -46.07,-21.39 -59.58,7.11"
       style="fill:#c41b31;fill-opacity:1;fill-rule:nonzero;stroke:none"
       transform="matrix(0.13333333,0,0,-0.13333333,0,437.33333)"
       clip-path="url(#clipPath69)" />
    <path
       id="path70"
       d="m 2418.7,1097.45 c -0.98,1.07 -2.34,1.52 -3.62,2.01 -1.28,0.6 -2.68,1.07 -4.16,1.27 -0.36,0.08 -2.99,0.68 -3.39,0.82 -0.1,-0.92 1.11,-3.34 0.43,-3.97 -1.66,-1.52 -2.25,-1.17 -3.58,-3.16 -0.49,-0.8 -1.01,-1.56 -1.21,-2.46 -0.37,-1.82 -1.18,-3.89 -1.39,-5.96 -0.07,-1.03 0.36,-3.52 0.59,-4.47 0.15,-0.51 1.25,-2.76 1.57,-3.36 0,-0.02 2.52,-2.72 2.39,-2.6 2.93,-2.95 0.52,-1.23 4.14,-4.8 1.82,-1.72 -0.86,-4.75 -2.61,-4.24 -12.21,3.53 -13.9,17.67 -25.03,22.03 -8.09,3.12 -19.72,-3.17 -20.95,-15.49 2.71,0.8 5.55,-0.27 6.1,-2.52 2.98,-12.42 21.17,-5.02 21.59,-13.75 0.33,-5.72 -13.6,0.98 -19.11,-2.66 -7.29,-4.86 -8.26,-18.84 -1.85,-26.97 6.62,6.29 14.86,-2.93 21.29,1.66 4.5,3.21 6.11,7.78 10.7,9.79 13.98,6.17 18.1,-6.7 15,-19.63 7.54,3.51 25.31,7.17 29.38,8.3 7.38,2.01 7.69,18.96 16.7,25.23 -12.77,0.06 -28.57,5.61 -32.15,18.09 -0.33,1.33 0.57,2.85 0.68,4.37 0.34,4.75 -0.11,9.34 -1.91,13.72 -0.18,0.44 -0.63,1.05 -1,1.58 -0.48,0.7 -0.91,1.42 -1.41,2.19 -1.28,1.75 -3.15,2.55 -4.97,3.71 -0.8,0.52 -1.8,0.66 -2.38,1.46"
       style="fill:#c41b31;fill-opacity:1;fill-rule:nonzero;stroke:none"
       transform="matrix(0.13333333,0,0,-0.13333333,0,437.33333)"
       clip-path="url(#clipPath71)" />
    <path
       id="path72"
       d="m 2324.76,1009.4 c 5.6,-10.861 -21.97,6.56 -32.3,-9.548 -3.31,-5.161 -1.54,-16.801 -1.54,-23.383 6.35,5.742 12.63,-5.18 24.46,5.269 1.3,-1.168 2.73,-1.886 0.93,-3.726 -4.36,-4.41 -6.82,-9.903 -4.5,-15.192 1.44,-3.461 11.27,-10.39 11.33,-9.789 1,7.09 13.11,0 15,13.949 0.83,5.762 2.51,15.309 10.83,11.829 7.6,-3.137 9.16,-11.75 7.39,-20.27 12.11,3.941 33.41,16.371 46.11,7.172 17.08,-12.332 45.12,-17.422 65.11,-23.621 -13.27,9.199 -17.49,33.25 -15.27,48.871 -31.46,-6.172 -64.49,-5.121 -93.66,8.359 -7.97,3.71 -6.9,12.95 -9.31,20.53 -2.73,8.55 -13.49,16.42 -23.24,15.7 -5.25,-0.39 -17.84,-11.41 -15.45,-11.95 -0.81,0.19 -0.78,-1.62 -1.21,-2.38 2.37,1.48 5.37,0 6.44,-2.56 0.78,-1.78 1.51,-3.75 3.03,-5.2 1.77,-1.74 4.87,-2.15 5.85,-4.06"
       style="fill:#c41b31;fill-opacity:1;fill-rule:nonzero;stroke:none"
       transform="matrix(0.13333333,0,0,-0.13333333,0,437.33333)"
       clip-path="url(#clipPath73)" />
    <path
       id="path74"
       d="m 2400.18,837.48 c 6.1,7.469 11.19,3.5 13.83,3.418 6.39,-0.207 5.96,-9.199 5.31,-14.937 25.03,12.109 48.84,29.359 78.21,23.051 -17.08,17.867 -11.06,56.269 13.12,60.988 0.05,0 -15.58,2.559 -17.24,3.621 -21.01,13.34 -46.7,26.027 -60.82,-1.883 -7.03,-13.879 5.86,-25.097 15.52,-36.558 1.74,-2.071 -1.07,-3.321 -3.34,-3.93 -22.97,-5.871 -65.3,-9.328 -67.21,25.039 -0.2,3.481 -9.09,6.352 -14.82,6.18 -17.01,-0.528 -16.74,-22.188 -14.8,-20.707 3.71,2.847 15.12,1.82 13.74,-6.852 -1.28,-8.148 -17.15,4.25 -23.47,-3.91 -5.3,-6.801 -5.13,-17.988 -1.37,-25.531 -0.76,2.761 2.44,4.812 4.17,5.062 17.64,2.969 18.64,-3.16 13.4,-20.25 -0.4,-1.289 5.21,-12.109 8.93,-13.07 -0.28,0.121 -0.23,2.461 0.28,3.258 0.5,0.84 1.35,1.472 2.25,1.781 1.91,0.609 3.88,0.512 5.82,1.02 0.92,0.269 1.61,0.859 2.48,1.378 1.38,0.883 2.32,2.09 3.31,3.34 4.12,5.184 7.74,11.782 14.65,12.442 3.19,0.34 5.22,-1.11 7.97,-2.891"
       style="fill:#c41b31;fill-opacity:1;fill-rule:nonzero;stroke:none"
       transform="matrix(0.13333333,0,0,-0.13333333,0,437.33333)"
       clip-path="url(#clipPath75)" />
    <path
       id="path76"
       d="m 2582.74,757.699 c 16.11,16.031 27.78,37.403 45.02,53.031 -18.9,11.129 -42.35,22.75 -44.83,47.75 -0.19,1.68 2.63,3.579 3.29,3.239 26.28,-14.758 61.75,-15.91 80.72,10.941 15.29,21.719 21.93,56.93 51.79,58.981 -9.94,19.089 1.23,41.121 17.55,51.179 -5.51,2.071 -12.59,6.602 -18.78,5.43 -7.53,-1.27 -10.77,-11.488 -19.36,-13.051 13.51,45.511 -12.6,109.101 -62.76,107.991 -9.39,-0.2 -21.57,-7.76 -24.65,-18.05 -2.89,-9.69 -4.38,-21.89 2.6,-30.19 16.42,-19.65 28.27,-41.098 23.1,-67.02 11.7,10.082 22.49,24.961 22.09,40.8 -0.07,3.95 7.11,1.12 8.23,2.76 13.7,20.08 -8.7,32.52 -20.61,45.15 -3.29,3.44 5.09,8.74 6.15,8.38 43.01,-12.87 47.09,-65.86 28.66,-100.29 -4.91,6.129 -23.12,4.122 -29.27,6.211 20.11,-10.152 14.9,-11.582 14.05,-14.941 -1.51,-6.051 -19.56,-3.398 -23.06,-7.852 -6.04,-7.738 -10.58,-11.109 -11.05,-36.718 8.35,8.98 19.28,22.64 31.13,16.558 25.32,-13.008 -1.26,-56.789 -25.12,-64.039 -20.39,-6.148 -39.27,0.332 -51.91,18.11 -18.26,25.683 -5.02,56.793 -17.98,82.851 -10.81,-2.66 -8.35,-16.781 -13.98,-14.262 -19.87,9.243 -31.18,30.493 -45.59,48.301 -5.96,-2.168 -8.61,-7.679 -14.36,-7.379 -8.52,0.352 -24.58,2.969 -28.01,-1.308 -3.95,-4.961 -6.86,-41.102 28.29,-54.203 23.85,-8.887 42.76,-16.821 57.78,-35.43 -10.08,-0.84 -13.58,4.043 -21.81,4.34 -8.1,0.312 -13.23,-2.86 -19.36,-6 -5.84,-3.008 -12.7,-14.508 -11.54,-23.649 5.51,-43.75 56.88,-44.32 80.51,-72 4.06,-4.679 -6.2,-23.711 -15.88,-31.398 -8.23,-6.602 -28.01,9.918 -24.8,23.867 2.61,11.152 -24.36,18.633 -33.79,5.852 3.76,0.418 4.67,-2.071 4.34,-3.782 -1.68,-10.3 11.09,-10.73 10.67,-15.918 -0.56,-7.23 -6.81,3.028 -11.75,3.957 -10.89,2.153 -21.7,-1.636 -28.06,-10.347 -1.92,-2.621 -6.2,-6.852 -4.31,-11.289 8.32,4.058 12.66,-8.903 20.41,-4.883 4.72,2.402 8.57,6.582 14.27,5.141 2.25,-0.61 4.59,-3.7 2.53,-5 -15.14,-9.75 -27.27,-23.36 -16.3,-38.891 0.29,3.609 3.16,6.172 5.44,6.82 4.45,1.25 10.29,-1.777 14.6,-0.359 7.05,2.39 3.41,9.359 6.1,14.379 4.21,7.91 18.53,20.961 26.58,11.461 1.48,-1.731 0.33,-8.121 -4.01,-8.2 4.46,0.079 8.43,-4.261 12.21,-3.441 1.06,0.18 2.21,0.18 3.17,0.691 0.85,0.411 1.83,0.602 2.46,1.29 1.78,1.789 3.83,3.691 4.13,6.5 3.23,-0.25 7.35,-0.61 9.48,2.191 2.06,2.769 4.64,4.937 6.9,7.051"
       style="fill:#c41b31;fill-opacity:1;fill-rule:nonzero;stroke:none"
       transform="matrix(0.13333333,0,0,-0.13333333,0,437.33333)"
       clip-path="url(#clipPath77)" />
    <path
       id="path78"
       d="m 2509.45,1074.03 c 28.18,7.91 59.48,22.56 66.21,53.85 8.55,-5.16 11.24,-16.84 11.34,-23.97 0.62,-39.24 -16.54,-73.12 -8.21,-114.219 0.93,-4.632 9.41,-19.203 5.56,-17.48 -4.68,2.109 -14.59,11.41 -20.06,7.09 -6.82,-5.332 -6.37,-13.813 -9.65,-11.821 -12.37,7.54 -25.46,18.661 -31.5,33.03 -2.31,5.41 -1.34,17.03 -2.88,15.37 -9.39,-10.27 -28.65,-12.44 -42.94,-14.63 3.27,2.91 6.18,14.61 5.66,17.02 -11.22,5.64 -27.35,-13.58 -27.07,-11.12 0.59,6.19 1.26,8.11 1.84,9.79 8.38,24.61 24.13,49.49 51.7,57.09"
       style="fill:#c41b31;fill-opacity:1;fill-rule:nonzero;stroke:none"
       transform="matrix(0.13333333,0,0,-0.13333333,0,437.33333)"
       clip-path="url(#clipPath79)" />
    <path
       id="path80"
       d="m 2280.14,1726.78 c 1.18,0.52 1.79,1.34 1.65,1.51 -10.22,14.32 -22.52,12.9 -27.73,0.13 -3.52,-8.62 17.03,-5.85 26.08,-1.64 m 19.96,15.22 c 7.31,0.2 12.7,4.71 17.36,9.65 -0.37,-4.12 5.66,-9.94 3.44,-14.33 -2.79,-5.5 -9.85,-8.79 -11.22,-13.91 -2.91,-10.46 5.52,-20.68 -0.64,-31.07 -18.07,-30.59 -57.56,-20.46 -84.53,-27.26 1.88,3.33 -0.45,8.22 -2.48,9.6 11.97,-1.55 27.89,1.08 31.1,10.11 3.94,11.14 5.9,19.37 0.67,28.58 -8.63,15.18 -26.59,8.08 -40.08,2.81 -2.13,9.42 6.7,15.14 11.79,16.46 14.28,3.75 27.25,9.93 40.57,14.89 11.6,4.36 22.14,-5.82 34.02,-5.53"
       style="fill:#c41b31;fill-opacity:1;fill-rule:nonzero;stroke:none"
       transform="matrix(0.13333333,0,0,-0.13333333,0,437.33333)"
       clip-path="url(#clipPath81)" />
    <path
       id="path82"
       d="m 2803.33,1732.23 c 1.13,0.65 -0.9,-0.88 0.05,0.07 -11.17,5.59 -25.69,12.91 -30.81,-2 -3.73,-10.93 21.08,-3.27 30.76,1.93 m 17.88,-47.88 c -3.86,-3.34 -10.29,-3.24 -14.67,-6.23 -2.67,-1.86 -5.08,-3.82 -7.85,-5.5 -1.3,-0.8 -5.18,-2.53 -6.6,-2.89 -3.93,-0.99 -3.08,-0.54 -6.7,-0.99 -2.17,-0.33 -3.19,-0.43 -5.36,-0.43 -2.16,0 -8.83,-0.19 -10.96,-0.15 -5.13,0.1 -6,-0.23 -11.14,0.58 -2.96,0.45 -5.77,1.25 -8.56,2.2 -1.87,0.61 -3.86,0.96 -5.83,1.01 0.24,2.06 0.47,4.29 2.11,5.64 2.13,1.84 2.55,0.18 5.68,0.47 0.13,0.02 4.42,-0.36 4.59,-0.36 0.71,0.02 1.58,0.05 2.34,0.17 1.35,0.19 2.48,0.45 3.69,1.04 1.54,0.73 3.22,1.18 4.61,2.29 0.48,0.43 1.05,0.83 1.55,1.31 1.01,0.97 2.41,1.46 3.33,2.62 2.94,3.57 5.13,7.04 5.44,11.64 0.31,3.41 0.56,6.93 -0.07,10.42 -0.1,0.54 -0.19,1.13 -0.24,1.64 -0.21,2.69 -1.54,5.22 -2.86,7.74 -7.83,14.93 -26.62,0.32 -39.49,1 0,2.85 -0.26,8.07 1.19,9.94 9.18,11.84 23.37,6.01 30.72,11.45 24.78,18.33 31.35,5.11 57.24,-2.06 7.75,-2.14 18.88,2.75 26.23,5.89 1.8,0.76 1.78,-10.93 0.86,-13.31 -3.08,-8.2 -11.57,-7.79 -14.55,-15.13 -4.36,-10.81 -5.04,-25.98 -16.45,-31.42"
       style="fill:#c41b31;fill-opacity:1;fill-rule:nonzero;stroke:none"
       transform="matrix(0.13333333,0,0,-0.13333333,0,437.33333)"
       clip-path="url(#clipPath83)" />
    <path
       id="path84"
       d="m 2510.99,1133.93 c 4.42,-1.62 17.55,5.59 22.31,8.26 1.15,0.65 1.96,1.78 2.88,2.72 0.07,0.11 -0.1,0.39 -0.28,0.41 -3.76,0.8 -7.17,1.09 -10.86,1.48 -2.76,0.33 -4.83,2.21 -7.6,2.76 -0.7,0.15 -1.37,0.03 -2.13,-0.22 -1.06,-0.43 -1.41,-1.19 -2.29,-1.58 -1.32,-0.63 -3.22,-0.63 -4.4,-1.72 -1.23,-1.09 -2.29,-2.17 -2.65,-3.75 -0.52,-1.82 -0.09,-4.47 1.19,-6.06 0.97,-1.25 2.46,-1.79 3.83,-2.3 m 34.04,20.04 c 11.45,-2.72 23.94,-3.07 31.37,6.93 3.65,-15.51 -10.57,-17.48 -13.23,-25.08 -3.99,-11.54 -3.74,-23.08 -14.92,-29.04 -22.28,-11.87 -50.15,-26.13 -75.73,-28.2 0.21,3.12 -1.94,8.85 2.15,9.06 8.94,0.39 15.93,7.05 17.96,12.34 2.79,7.39 -0.4,25.26 -7.07,28.75 -7.7,4.07 -14.46,-2.18 -21.54,-5.27 -2.98,7.83 9.25,20.82 28.39,19.67 -0.5,0.06 9.51,10.92 9.05,10.59 12.5,8.61 26.23,4.27 43.57,0.25"
       style="fill:#c41b31;fill-opacity:1;fill-rule:nonzero;stroke:none"
       transform="matrix(0.13333333,0,0,-0.13333333,0,437.33333)"
       clip-path="url(#clipPath85)" />
    <path
       id="path86"
       d="m 2892.59,1262.52 c -0.38,3.75 9.04,15 9.28,23.25 0.89,28.06 17.79,41.3 18.28,71.27 0.12,7.83 -32.27,15.15 -33.69,32.03 -0.66,8.34 -3.43,20.43 4.95,20.25 10.74,-0.19 21.29,1.72 28.88,8.42 33.88,29.82 5.28,70.57 1.18,106.56 -0.89,7.89 13.71,24.88 13.28,30.47 -2.35,30.51 -8,58.36 2.86,88.33 -8.52,-7.61 -11.07,-20.21 -18.22,-26.63 -3.47,-3.22 -5.18,3.87 -4.94,4.98 4.28,26.38 14.79,49.49 27,74.56 14.45,29.7 7.21,53.83 -19.53,62.71 -24.51,8.16 -48.16,-14.65 -50.82,-38.08 -2.45,-21.5 4.24,-47.27 9.33,-64.88 1.46,-5.16 0.6,-11.02 1.68,-15.5 4.37,17.8 4.87,36.35 4.59,55.15 -0.07,4.59 3.57,10.73 8.28,12.09 15.92,4.61 24.15,-6.9 23.09,-15.84 -3.5,-28.16 -9.18,-49.74 -15.92,-77.71 -7.69,-31.93 3.76,-63.61 7.12,-94.65 -12.26,7.19 -25.58,7.54 -30.31,-11.54 -2.57,-10.16 6.58,-20.8 9.4,-29.79 0.28,12.21 11.8,28.87 22.99,21.43 13.72,-9.12 14.22,-52.95 11.19,-58.73 -6.67,-12.72 -17.63,-21.78 -32.83,-17.29 -8.57,2.52 -5.09,15.2 -10.23,20.57 -27.32,28.24 -39.76,62.03 -42.09,101.03 -0.37,5.71 2.61,20.71 1.78,21.04 -35.72,14.73 -52.17,0.06 -67,-21.04 -2.55,6.39 -16.18,15.32 -17.27,13.33 -6.79,-12.58 -4.82,-35.42 5.32,-44.24 27.54,-23.83 54.84,-39.79 70.32,-73.85 -16.52,-2.17 -32.65,-6.93 -39,-24.22 -6.62,-18.03 -4.34,-43.11 14.7,-50.43 15.52,-5.96 42.18,0.7 48.03,-0.04 16.48,-2.17 34.94,-16.39 32.36,-31.97 -0.15,-0.8 -7.08,-37.21 -22.86,-28.18 -8.54,4.88 -3.73,24.84 -16.75,27.98 -17.53,4.24 -21.83,-20.23 -19.61,-18.14 5.59,5.33 9.47,-3.48 20.3,-9.45 -36.69,7.96 -25.29,-25.67 -23.97,-21.96 1.89,5.22 8.55,-0.23 21.7,0.67 0.47,0.02 -2.86,-2.78 -3.06,-3.03 -2.05,-3.4 -3.06,-5.04 -4.56,-8.61 -0.73,-1.66 -0.63,-3.52 -0.4,-5.26 0.17,-1.79 0.8,-3.38 1.77,-4.94 0.19,-0.33 0.53,-0.64 0.93,-0.84 0.16,-0.06 0.68,-0.9 0.78,-0.9 0.8,-0.09 -0.71,2.58 1.41,2.76 0.5,0.04 2.07,0.27 2.47,0.11 0.96,-0.35 2.22,-0.99 3.24,-1.25 0.94,-0.27 1.94,-0.45 2.98,-0.62 2.51,-0.31 3.38,-0.39 5.58,0.39 1.85,0.62 3.69,1.03 5.44,2.25 -2.34,-1.63 2.61,2.38 2.39,1.93 2.27,4.9 3.7,3.48 4.19,4.35 3.9,7.43 7.29,8.13 15.92,7.07 0.83,-0.09 2.41,-1.81 2.93,-2.59 0.62,-0.94 2.39,-5.59 2.09,-3.87 0.62,-3.46 2.75,-5.61 3.05,-8.91"
       style="fill:#c41b31;fill-opacity:1;fill-rule:nonzero;stroke:none"
       transform="matrix(0.13333333,0,0,-0.13333333,0,437.33333)"
       clip-path="url(#clipPath87)" />
    <path
       id="path88"
       d="m 2627.93,1600.36 c -2.23,1.4 -2.96,4.82 -4.49,6.21 -0.48,0.52 -0.88,1.09 -1.38,1.64 -0.75,0.78 -1.11,1.87 -1.42,2.95 -1.51,5.23 -0.73,11.42 4,14.9 0.18,0.17 0.15,0.45 0.23,0.66 0.25,0.49 0.98,0.72 1.1,1.12 0.13,0.45 0.91,0.45 0.66,1.05 0.32,-0.15 0.35,0.3 0.47,0.42 0.95,1.23 1,3.4 -0.83,4 1.51,-0.12 3.06,-0.08 4.59,-0.43 0.6,-0.12 1.21,-0.28 1.78,-0.35 5.79,-0.76 13.08,-3.39 14.65,-9.21 l 2.03,-2.32 c 6.03,-14.02 3.97,-48.52 37.54,-56.8 17.49,-4.33 35.08,-9.74 53.01,-9.43 -4.32,-17.48 -4.27,-39.65 9.59,-52.3 -20.15,10.97 -33.59,8.65 -51.1,25.23 -7.83,7.4 -26.05,17.5 -34.85,16.02 -3.62,-0.63 5.02,11.64 -3.05,14.08 -5.3,1.58 -19.44,1.23 -21.87,-2.41 -11.61,-17.48 -23.84,-17.38 -27.94,-20.89 4.71,4.02 -19.01,23.36 10.46,33.84 2.82,1.04 3.86,7.45 0.38,9.07 -5.77,2.67 -10.57,-1.31 -16.28,-4.65 -6.52,-3.87 -8.01,10.33 -18.26,5.1 -2.13,30.31 24.89,32.91 40.98,14 1.13,-1.43 5.62,0.27 3.76,1.89 l -3.76,6.61"
       style="fill:#c41b31;fill-opacity:1;fill-rule:nonzero;stroke:none"
       transform="matrix(0.13333333,0,0,-0.13333333,0,437.33333)"
       clip-path="url(#clipPath89)" />
    <path
       id="path90"
       d="m 2994.15,1732.28 c -4.16,-199.11 -8.23,-390.54 -66.71,-575.34 l -413.03,327.89 -414.72,-328.85 c -58.8,185.2 -62.87,377.01 -67.03,576.57 -0.38,18.96 -0.78,37.98 -1.23,57.02 h 963.98 c -0.45,-19.14 -0.86,-38.23 -1.26,-57.29 z M 2814.44,917.449 C 2746.67,813.359 2642.71,726.352 2513.66,665.551 2384.4,726.199 2280.27,813.23 2212.35,917.449 2201,934.91 2190.42,952.41 2180.49,969.98 l 333.9,264.69 332.38,-263.9 c -10.06,-17.84 -20.77,-35.61 -32.33,-53.321 z m -694.62,181.191 394.57,312.75 392.91,-311.95 c -9.89,-25.74 -20.93,-51.33 -33.33,-76.8 l -359.56,285.47 -361.13,-286.37 c -12.45,25.51 -23.54,51.14 -33.46,76.9 z m -107.95,710.03 0.23,-9.78 c 0.55,-22.3 1.01,-44.54 1.46,-66.73 6.04,-289.34 11.72,-562.64 182.8,-825.14 70.57,-108.321 178.92,-198.461 313.29,-260.668 l 4.02,-1.872 4.02,1.872 c 134.18,62.378 242.34,152.519 312.77,260.668 171.02,262.4 176.76,535.6 182.78,824.85 0.48,22.3 0.95,44.62 1.5,67.02 l 0.23,9.78 h -1003.1"
       style="fill:#231f20;fill-opacity:1;fill-rule:nonzero;stroke:none"
       transform="matrix(0.13333333,0,0,-0.13333333,0,437.33333)"
       clip-path="url(#clipPath91)" />
  </g>
</svg>
