<?xml version="1.0" encoding="UTF-8" standalone="no"?>
<svg
   id="emoji"
   viewBox="0 0 78.298111 50.197131"
   version="1.1"
   sodipodi:docname="logo-cropped.svg"
   width="78.298111"
   height="50.197132"
   xml:space="preserve"
   inkscape:version="1.3.2 (091e20e, 2023-11-25)"
   xmlns:inkscape="http://www.inkscape.org/namespaces/inkscape"
   xmlns:sodipodi="http://sodipodi.sourceforge.net/DTD/sodipodi-0.dtd"
   xmlns="http://www.w3.org/2000/svg"
   xmlns:svg="http://www.w3.org/2000/svg"><defs
     id="defs16" /><sodipodi:namedview
     id="namedview16"
     pagecolor="#ffffff"
     bordercolor="#000000"
     borderopacity="0.25"
     inkscape:showpageshadow="2"
     inkscape:pageopacity="0.0"
     inkscape:pagecheckerboard="0"
     inkscape:deskcolor="#d1d1d1"
     inkscape:zoom="3.2777778"
     inkscape:cx="45.152542"
     inkscape:cy="4.8813559"
     inkscape:window-width="1312"
     inkscape:window-height="429"
     inkscape:window-x="0"
     inkscape:window-y="38"
     inkscape:window-maximized="0"
     inkscape:current-layer="emoji" /><g
     id="color"
     transform="translate(-4.6717362,-7.3220418)"><path
       fill="#f4aa41"
       d="m 16.4225,52.5106 c 0.01,-0.025 0.0115,-0.0511 0.019,-0.0768 0.1695,-0.4767 -0.0475,-1.0045 -0.5032,-1.2242 -1.2397,-0.6076 -2.3099,-1.5123 -3.1152,-2.6337 -1.1566,-1.6278 -1.7834,-3.5726 -1.795,-5.5694 0.0447,-0.5505 -0.3646,-1.0332 -0.915,-1.0791 -0.0332,-0.0019 -0.0618,0.0112 -0.0942,0.0122 l -0.0074,-0.0014 h -0.01 c -1.6572,-0.0823 -3.2605,0.6002 -4.35,1.8515 -1.0459,1.3526 -1.2569,3.3184 -0.6211,5.8613 0.5441,1.7699 1.7901,3.2394 3.4472,4.0655 0.8471,0.3845 1.7681,0.5788 2.6983,0.5693 1.6511,-0.0552 3.2699,-0.4733 4.7412,-1.2246 0.2044,-0.1317 0.3747,-0.3099 0.4971,-0.52 0.0058,-0.0096 0.004,-0.0205 0.0083,-0.0306 z"
       id="path1" /><path
       fill="#b1cc33"
       d="m 47.4061,31.66 c -0.2285,-0.167 -5.6211,-4.0595 -9.5782,-1.9375 -0.1069,0.0573 -0.1967,0.1415 -0.299,0.2061 -2.3188,-0.6375 -6.2432,-1.2077 -9.0222,1.0644 -0.0833,0.0681 -0.1515,0.1526 -0.2312,0.2245 -1.7034,-0.196 -7.35,-0.5526 -10.54,2.79 -0.6455,0.6863 -1.1532,1.4903 -1.4955,2.3681 -0.7561,0.1233 -5.0351,0.9595 -6.6382,4.3311 -1.14,2.3955 -0.63,5.3936 1.5254,8.9277 0.0351,0.0547 2.7705,4.2266 7.6826,4.2266 1.6287,-0.0348 3.2272,-0.4467 4.67,-1.2033 0.4314,0.0684 0.8674,0.103 1.3042,0.1037 0.4925,-9e-4 0.9842,-0.0398 1.4707,-0.1162 1.1944,-0.1964 2.3523,-0.57 3.4356,-1.1083 0.1204,-0.0598 0.2585,-0.0539 0.3763,0.011 0.6847,0.3774 1.4566,0.5716 2.2408,0.5621 1.5662,-0.0831 3.0692,-0.643 4.3077,-1.6041 0.0178,-0.0138 0.0437,-0.0082 0.0539,0.0119 0.3583,0.7077 0.6767,1.4349 0.9539,2.1782 l 0.0839,0.2959 c 0.252,0.9121 0.8692,3.1523 3.4209,3.1513 0.3955,-0.0033 0.7894,-0.0495 1.1749,-0.1377 1.9882,-0.44 2.91,-2.6982 2.53,-6.1963 -0.0028,-0.0258 -0.018,-0.0462 -0.0227,-0.0713 -0.0133,-0.0614 -0.0324,-0.1214 -0.0571,-0.1791 -0.024,-0.0665 -0.0552,-0.1302 -0.093,-0.19 -0.0127,-0.0189 -0.0152,-0.0413 -0.0293,-0.06 -1.751,-2.2783 -1.919,-5.788 -0.501,-10.43 0.8555,-2.7989 1.9346,-4.67 3.208,-5.5616 0.006,-0.0042 0.0087,-0.0109 0.0145,-0.0152 0.4636,-0.2853 0.608,-0.8924 0.3227,-1.356 -0.0694,-0.1128 -0.1608,-0.2104 -0.2688,-0.287 z"
       id="path2" /><path
       fill="#b1cc33"
       d="m 55.64,35.402 c -0.0549,-0.2597 -0.2109,-0.4869 -0.4336,-0.6313 -0.0514,-0.1855 -0.1568,-0.3516 -0.3028,-0.4771 -0.2129,-0.1728 -5.2451,-4.2373 -9.2109,-2.415 -2.5908,1.19 -3.97,4.5156 -4.0986,9.8828 -0.0889,3.69 0.3672,6.5352 1.3535,8.4492 0.4342,0.947 0.8125,1.9187 1.1328,2.91 l 0.0615,0.2763 c 0.1924,0.9112 0.68,3.21 3.4531,3.209 0.2643,-9e-4 0.5282,-0.0195 0.79,-0.0556 1.0706,-0.153 1.9707,-0.8814 2.3437,-1.8965 0.0193,-0.043 0.0353,-0.0874 0.0479,-0.1328 0.2286,-0.821 0.3604,-1.666 0.3926,-2.5176 0,-0.03 -0.0147,-0.056 -0.0174,-0.0858 -0.0171,-0.1338 -0.0563,-0.2639 -0.1158,-0.3849 -0.0106,-0.02 -0.0111,-0.0415 -0.0231,-0.0606 -0.5752,-0.914 -1.0732,-3.0048 -0.1728,-7.7773 0.8027,-4.26 2.1962,-6.7178 4.0293,-7.1065 0.54,-0.1154 0.8847,-0.646 0.7706,-1.1863 z"
       id="path3" /><path
       fill="#b1cc33"
       d="m 54.6,57.2507 c -1.8592,0.1902 -3.5205,-1.1628 -3.7107,-3.0219 -0.0071,-0.0697 -0.0121,-0.1396 -0.0149,-0.2096 l -0.043,-0.2461 c -0.2526,-0.9089 -0.5621,-1.8009 -0.9267,-2.6709 -0.8584,-1.8066 -1.1367,-4.4082 -0.8223,-7.7178 0.4385,-4.625 1.9053,-7.4628 4.3594,-8.4365 3.8379,-1.5224 8.4844,2.2715 9.0967,2.792 1.2615,0.9021 2.078,2.2998 2.2441,3.8418 0.5283,3.9434 -2.2793,9.0186 -8.3457,15.085 -0.0479,0.0479 -0.1006,0.0908 -0.1572,0.1279 -0.4347,0.2845 -0.9406,0.4412 -1.46,0.4521 -0.0738,0.0033 -0.148,0.004 -0.2197,0.004 z M 55.73,55.96 Z"
       id="path4" /><path
       fill="#5c9e31"
       d="m 65.5752,44.1666 c -0.3095,-0.2179 -0.6343,-0.4133 -0.9719,-0.5846 -0.1167,-0.117 -0.2612,-0.2025 -0.42,-0.2484 -0.5341,-0.1404 -1.0811,0.1779 -1.2229,0.7117 -0.8774,2.813 -2.2222,5.4582 -3.978,7.8247 -0.3146,0.4539 -0.2017,1.0769 0.2522,1.3915 0,0 10e-5,1e-4 2e-4,2e-4 l 0.0138,0.0062 c 0.3825,0.5055 0.9301,0.8609 1.5475,1.0046 0.3512,0.075 0.7127,0.0893 1.0688,0.0423 0.708,-0.1035 1.3852,-0.3594 1.9847,-0.75 0.028,-0.019 0.0551,-0.0394 0.081,-0.0612 2.3059,-1.95 3.448,-3.9155 3.3952,-5.8424 -0.0601,-1.3608 -0.6967,-2.6316 -1.7506,-3.4946 z"
       id="path5" /></g><g
     id="line"
     transform="translate(-4.6717362,-7.3220418)"><path
       fill="none"
       stroke="#000000"
       stroke-linecap="round"
       stroke-linejoin="round"
       stroke-width="2"
       d="m 16.4874,37.35 c 0,0 -10.7857,1.4686 -4.518,11.7468 1.6145,2.358 4.2913,3.7642 7.149,3.7555"
       id="path6" /><path
       fill="none"
       stroke="#000000"
       stroke-linecap="round"
       stroke-linejoin="round"
       stroke-width="2"
       d="m 10.0116,42.9384 c -1.8613,0.0181 -5.4378,0.76 -4.0155,6.45 0,0 1.7487,6.4281 9.4948,2.7686"
       id="path7" /><path
       fill="none"
       stroke="#000000"
       stroke-linecap="round"
       stroke-linejoin="round"
       stroke-width="2"
       d="m 28.6134,32.2705 c 0,0 -14.5225,-2.4028 -11.6645,10.9767 1.7,7.959 6.0151,8.902 9.1506,8.41"
       id="path8" /><path
       fill="none"
       stroke="#000000"
       stroke-linecap="round"
       stroke-linejoin="round"
       stroke-width="2"
       d="m 37.6168,30.9932 c -3.3141,-0.9893 -12.0795,-2.4665 -10.95,10.0681 0.86,9.5456 4.309,10.53 6.8106,9.8954"
       id="path9" /><path
       fill="none"
       stroke="#000000"
       stroke-linecap="round"
       stroke-linejoin="round"
       stroke-width="2"
       d="m 46.8152,32.4668 c 0,0 -12.3728,-9.0547 -11.5975,8.1713 0.1875,4.1649 0.9041,6.8339 1.8743,8.4945 l 0.0274,0.0457 c 0.5457,1.0462 1.0325,2.1222 1.4582,3.2227 0.3192,1.0337 0.6121,3.2676 3.5089,2.6276 0.1894,-0.041 0.3711,-0.1116 0.5385,-0.2091"
       id="path10" /><path
       fill="none"
       stroke="#000000"
       stroke-linecap="round"
       stroke-linejoin="round"
       stroke-width="2"
       d="m 54.27,35.0685 c 0,0 -11.2947,-9.24 -11.677,6.7171 -0.0924,3.8582 0.4214,6.3731 1.2449,7.9752 l 0.0233,0.0441 c 0.455,1.0028 0.8523,2.0308 1.19,3.079 0.2391,0.977 0.3743,3.06 3.1993,2.6755 0.3456,-0.0437 0.6705,-0.1888 0.9336,-0.4171"
       id="path11" /><path
       fill="none"
       stroke="#000000"
       stroke-linecap="round"
       stroke-linejoin="round"
       stroke-width="2"
       d="m 55.73,55.96 c -0.2805,0.1824 -0.6067,0.2821 -0.9412,0.2878 -2.7942,0.09 -2.8,-1.7769 -2.9752,-2.668 -0.2691,-0.968 -0.5964,-1.9188 -0.98,-2.8474 l -0.02,-0.0413 c -0.71,-1.5 -1.0612,-3.7848 -0.7359,-7.2112 C 51.4235,29.308 61.94,38.5441 61.94,38.5441 c 0,0 6.2689,3.58 -3.94,15.02"
       id="path12" /><path
       fill="none"
       stroke="#000000"
       stroke-linecap="round"
       stroke-linejoin="round"
       stroke-width="2"
       d="m 19.1184,52.8527 c 0,0 1.3622,0.4 0,2.6883"
       id="path13" /><path
       fill="none"
       stroke="#000000"
       stroke-linecap="round"
       stroke-linejoin="round"
       stroke-width="2"
       d="m 26.0988,51.6527 c 0,0 1.3621,0.4 0,2.6883"
       id="path14" /><path
       fill="none"
       stroke="#000000"
       stroke-linecap="round"
       stroke-linejoin="round"
       stroke-width="2"
       d="m 33.4775,50.9584 c 0,0 1.3622,0.4 0,2.6884"
       id="path15" /><path
       fill="none"
       stroke="#000000"
       stroke-linecap="round"
       stroke-linejoin="round"
       stroke-width="1.8807"
       d="m 59.8041,52.4394 c 1.1586,1.9389 3.52,0.3461 3.52,0.3461 5.7078,-4.8285 1.69,-7.8645 1.69,-7.8645 -0.3315,-0.2354 -0.6837,-0.4401 -1.0524,-0.6115"
       id="path16" /></g><g
     id="color-8"
     transform="translate(22.256412,-9.1972363)"><ellipse
       cx="29.5854"
       cy="24.8305"
       rx="11.1656"
       ry="11.1657"
       transform="rotate(-36.812602,29.583841,24.829803)"
       fill="#ffffff"
       stroke="none"
       id="ellipse1" /><path
       fill="#92d3f5"
       stroke="none"
       d="m 39,19 c -1.6269,-2.1743 -5.3114,-4.6131 -8,-5 -1.841,-0.2648 -5,0 -5.3126,1.4508 2.432,0.2232 6.261,1.3933 9.4483,6.0391 2.7047,3.9427 2.9098,7.2606 2.5092,9.5215 C 40,31 41.7867,22.7243 39,19 Z"
       id="path1-0" /><path
       fill="#d0cfce"
       stroke="none"
       d="m 20.717,13.2532 c -3.1395,2.3517 -5.1766,5.7832 -5.7372,9.6663 -0.5584,3.883 0.4286,7.7514 2.7785,10.8927 4.8528,6.4827 14.0758,7.8101 20.5595,2.9577 6.4832,-4.8514 7.8112,-14.073 2.9587,-20.5591 -2.3504,-3.1402 -5.7839,-5.1778 -9.6668,-5.7362 -3.883,-0.5585 -7.751,0.4276 -10.8927,2.7786 z m 17.4763,5.1351 c 2.2813,3.0482 2.696,6.924 1.4434,10.248 -0.6965,1.8514 -1.9113,3.5306 -3.6095,4.8016 -4.7463,3.5525 -11.498,2.58 -15.0496,-2.166 -1.7206,-2.2992 -2.4437,-5.1309 -2.0341,-7.9731 0.41,-2.8429 1.8999,-5.3554 4.2002,-7.0765 2.2984,-1.721 5.1298,-2.4433 7.9731,-2.0341 2.8424,0.4087 5.3551,1.9007 7.0765,4.2001 z"
       id="path2-2" /><path
       fill="#3f3f3f"
       stroke="none"
       d="m 39,42 10,14 c 0,0 3,4 5,2 2,-2 0,-5 0,-5 L 43,39 Z"
       id="path3-4" /></g><g
     id="hair"
     transform="translate(22.256412,-9.1972363)" /><g
     id="skin"
     transform="translate(22.256412,-9.1972363)" /><g
     id="skin-shadow"
     transform="translate(22.256412,-9.1972363)" /><g
     id="line-8"
     transform="translate(22.256412,-9.1972363)"><circle
       cx="29.5854"
       cy="24.8305"
       transform="rotate(-36.812602,29.583991,24.829853)"
       fill="none"
       stroke="#000000"
       stroke-linecap="round"
       stroke-linejoin="round"
       stroke-miterlimit="10"
       stroke-width="2"
       id="ellipse3"
       r="14.6372" /><ellipse
       cx="29.5854"
       cy="24.8305"
       rx="11.1656"
       ry="11.1657"
       transform="rotate(-36.812602,29.583841,24.829803)"
       fill="none"
       stroke="#000000"
       stroke-linecap="round"
       stroke-linejoin="round"
       stroke-miterlimit="10"
       stroke-width="2"
       id="ellipse4" /><path
       fill="none"
       stroke="#000000"
       stroke-linecap="round"
       stroke-linejoin="round"
       stroke-miterlimit="10"
       stroke-width="2"
       d="m 38.6805,41.7876 4.1839,-3.1316 11.6927,15.622 c 0.8354,1.1162 0.5758,2.7219 -0.5795,3.5867 v 0 c -1.1554,0.8647 -2.7691,0.661 -3.6045,-0.4551 z"
       id="path4-3" /></g></svg>
